<svg xmlns="http://www.w3.org/2000/svg" width="470.367" height="461.535" viewBox="0 0 470.367 461.535"><path d="M300.329,78.134a19.881,19.881,0,0,0-19.858,19.858V519a19.881,19.881,0,0,0,19.858,19.858H484.637A19.881,19.881,0,0,0,504.5,519V97.992a19.881,19.881,0,0,0-19.858-19.858Z" transform="translate(-243.576 -78.134)" fill="#e6e6e6"/><path d="M569.2,191.622V157.838a77.724,77.724,0,0,1-50.178-37.351h0a14.763,14.763,0,0,1-8.824,2.9H483.368A110.8,110.8,0,0,0,569.2,191.622Z" transform="translate(-320.562 -94.204)" fill="#fff"/><path d="M591.891,146.659V114.205a18.071,18.071,0,0,0-18.077-18.077H547.769v3.134a14.842,14.842,0,0,1-4.591,10.754A75.894,75.894,0,0,0,591.891,146.659Z" transform="translate(-343.256 -84.961)" fill="#fff"/><path d="M374.437,114.149H357.662a14.885,14.885,0,0,1-14.881-14.887V96.128H318.343a18.076,18.076,0,0,0-18.077,18.079V516.456a18.045,18.045,0,0,0,18.077,18.065h163.3a17.585,17.585,0,0,0,2.228-.136,18.087,18.087,0,0,0,15.849-17.928V220.339A148.645,148.645,0,0,1,374.437,114.149Z" transform="translate(-251.087 -84.961)" fill="#fff"/><path d="M458.407,125.168h-35.46a146.755,146.755,0,0,0,123.324,104.3V195.322A112.737,112.737,0,0,1,458.407,125.168Z" transform="translate(-297.637 -95.98)" fill="#fff"/><path d="M497.285,581.708H329.732a3.106,3.106,0,0,1-3.1-3.1V537.043a3.106,3.106,0,0,1,3.1-3.1H497.285a3.106,3.106,0,0,1,3.1,3.1v41.563A3.106,3.106,0,0,1,497.285,581.708ZM329.732,535.181a1.864,1.864,0,0,0-1.862,1.862v41.563a1.864,1.864,0,0,0,1.862,1.862H497.285a1.864,1.864,0,0,0,1.862-1.862V537.043a1.864,1.864,0,0,0-1.862-1.862Z" transform="translate(-261.09 -251.082)" fill="#e6e6e6"/><circle cx="13.032" cy="13.032" r="13.032" transform="translate(77.329 293.71)" fill="#3f3d56"/><path d="M413.8,558.427a2.172,2.172,0,0,0,0,4.344H516.194a2.172,2.172,0,1,0,0-4.344Z" transform="translate(-293.342 -260.373)" fill="#e6e6e6"/><path d="M413.8,579.427a2.172,2.172,0,0,0,0,4.344H516.194a2.172,2.172,0,1,0,0-4.344Z" transform="translate(-293.342 -268.341)" fill="#e6e6e6"/><path d="M497.285,693.708H329.732a3.106,3.106,0,0,1-3.1-3.1V649.043a3.106,3.106,0,0,1,3.1-3.1H497.285a3.107,3.107,0,0,1,3.1,3.1v41.563A3.106,3.106,0,0,1,497.285,693.708ZM329.732,647.181a1.864,1.864,0,0,0-1.862,1.862v41.563a1.864,1.864,0,0,0,1.862,1.862H497.285a1.864,1.864,0,0,0,1.862-1.862V649.043a1.864,1.864,0,0,0-1.862-1.862Z" transform="translate(-261.09 -293.579)" fill="#e6e6e6"/><circle cx="13.032" cy="13.032" r="13.032" transform="translate(77.329 363.213)" fill="#3f3d56"/><path d="M413.8,670.427a2.172,2.172,0,0,0,0,4.344H516.194a2.172,2.172,0,1,0,0-4.344Z" transform="translate(-293.342 -302.87)" fill="#e6e6e6"/><path d="M413.8,691.427a2.172,2.172,0,0,0,0,4.344H516.194a2.172,2.172,0,1,0,0-4.344Z" transform="translate(-293.342 -310.838)" fill="#e6e6e6"/><path d="M424.9,399.838a58.929,58.929,0,0,1-58.954-58.953c0-.123,0-.253.007-.377a58.952,58.952,0,1,1,85.125,53.215,58.4,58.4,0,0,1-26.179,6.115Zm0-116.666a57.836,57.836,0,0,0-57.706,57.375c-.007.132-.006.238-.006.338A57.72,57.72,0,1,0,424.9,283.171Z" transform="translate(-276.009 -155.461)" fill="#e6e6e6"/><path d="M478.16,367.183l-40.351-23.3a1.241,1.241,0,0,0-1.862,1.075v46.593a1.241,1.241,0,0,0,1.862,1.075l40.351-23.3a1.241,1.241,0,0,0,0-2.15l-40.351-23.3a1.241,1.241,0,0,0-1.862,1.075v46.593a1.241,1.241,0,0,0,1.862,1.075l40.351-23.3a1.241,1.241,0,0,0,0-2.15Z" transform="translate(-302.569 -178.906)" fill="#f7aab0"/><path d="M838.855,351.355l-27.3,3.1c.373-8.387-.336-16.21-3.1-22.961l22.34-8.067C828.785,331.782,832.545,341.308,838.855,351.355Z" transform="translate(-443.908 -171.208)" fill="#fad2b8"/><path d="M849.806,460.48l8.844,15.789a8.2,8.2,0,0,1-3.254,11.225h0a8.2,8.2,0,0,1-12.07-6.437l-1.438-15.089-4.9-57.595-8.358-37.883,17.353-4.927,8.078,42.6Z" transform="translate(-451.567 -187.195)" fill="#fad2b8"/><path d="M825.358,663.837l-11.17-.621L789.365,552.756,736.617,663.837l-11.17-.621,32.269-171.276.621-31.028,40.337-2.482c15.076,16.579,23.614,33.726,24.823,51.507Z" transform="translate(-412.415 -222.431)" fill="#2f2e41"/><path d="M726.831,806.106c-2.115.965-4.147-7.085-5.669-5.1-5.111,6.663-17.01,4.573-16.956,3.8a3.118,3.118,0,0,1-1.966-4.064h0a3.118,3.118,0,0,1,2.164-1.93l5.305-1.327,8.33-14.65,8.5-.575h0A20.317,20.317,0,0,1,730.3,799.6C729.529,802.746,728.338,805.418,726.831,806.106Z" transform="translate(-403.535 -345.305)" fill="#2f2e41"/><path d="M868.911,805.755c-2.114.965-4.147-7.084-5.669-5.1-5.888,7.673-17.353,5.025-16.956,3.8a3.118,3.118,0,0,1-1.966-4.064h0a3.118,3.118,0,0,1,2.164-1.93l5.305-1.326,8.33-14.65,9.079-1.149.229.375a23.408,23.408,0,0,1,2.508,19.141C871.181,803.273,870.153,805.188,868.911,805.755Z" transform="translate(-457.445 -344.953)" fill="#2f2e41"/><circle cx="19.238" cy="19.238" r="19.238" transform="translate(350.887 127.4)" fill="#fad2b8"/><path d="M816.919,420.933l-41.578,2.482-3.723-23.582c-3.854-10.6.963-20.338,8.688-29.787l16.135-18,22.34-.62h0a16.686,16.686,0,0,1,11.354,13.806,66.045,66.045,0,0,1-6.908,38.367Z" transform="translate(-429.419 -181.832)" fill="#fff"/><path d="M764.3,492.274l2.975,17.851a8.2,8.2,0,0,1-6.863,9.46h0a8.2,8.2,0,0,1-9.177-10.145l3.756-14.684,14.894-55.851,4.964-38.475,18,1.241-6.826,42.819Z" transform="translate(-422.104 -200.424)" fill="#fad2b8"/><path d="M828.9,371.893h-.445c-8.391-7.271-15.684-15.422-9.794-25.627-4.994-12.676-10.563-25.84-10.226-33.985a23.883,23.883,0,0,0-5.425-16.6c-5.307-6.2-6.488-8.968-16.182-6.624h0a18.367,18.367,0,0,1,19.033-18.61l6.056.22c4.633.168,19.438,2.062,22.617,5.119a14.748,14.748,0,0,1,4.222,12.4,14.5,14.5,0,0,0,5.261,13.26c8.157,8.435,11.521,17.187,6.9,26.467-3.491,9.825-3.324,17.912,5.68,21.8h0C859.514,360.934,840.495,371.893,828.9,371.893Z" transform="translate(-435.703 -151.098)" fill="#2f2e41"/><path d="M807.408,389.673c-7.7-5.893-15.359-6.358-22.961-.621l2.076-23.565a12.813,12.813,0,0,1,12.2-13.019h0a12.813,12.813,0,0,1,13.42,13.012Z" transform="translate(-434.802 -182.22)" fill="#fff"/><ellipse cx="2.482" cy="4.654" rx="2.482" ry="4.654" transform="translate(367.952 145.706)" fill="#ffb8b8"/><path d="M816.352,289.435V268.792a1.862,1.862,0,0,0-1.862-1.862h-3.723a1.862,1.862,0,0,0-1.862,1.862v19.4a11.767,11.767,0,1,0,7.447,1.245Z" transform="translate(-440.333 -149.77)" fill="#725e97"/><circle cx="5.585" cy="5.585" r="5.585" transform="translate(365.47 144.465)" fill="#fff"/><path d="M470.122,742.9H0v-1.353H470.367Z" transform="translate(0 -281.37)" fill="rgba(78,78,78,0.57)"/></svg>