<svg xmlns="http://www.w3.org/2000/svg" xmlns:xlink="http://www.w3.org/1999/xlink" width="295" height="295" viewBox="0 0 295 295"><defs><linearGradient id="a" x1="0.226" y1="0.112" x2="0.775" y2="1" gradientUnits="objectBoundingBox"><stop offset="0" stop-color="#f6cbc9" stop-opacity="0.859"/><stop offset="1" stop-color="#fff" stop-opacity="0.49"/></linearGradient></defs><g transform="translate(-1235 -1499)"><g transform="translate(844 -1)"><path d="M147.5,0A147.5,147.5,0,1,1,0,147.5,147.5,147.5,0,0,1,147.5,0Z" transform="translate(391 1500)" opacity="0.33" fill="url(#a)"/><path d="M122,0A122,122,0,1,1,0,122,122,122,0,0,1,122,0Z" transform="translate(416 1525)" opacity="0.6" fill="url(#a)"/></g><path d="M101.756,4.5h-1.668V8.67a2.51,2.51,0,0,1-2.5,2.5H89.245a2.51,2.51,0,0,1-2.5-2.5V4.5H20.018V8.67a2.51,2.51,0,0,1-2.5,2.5H9.175a2.51,2.51,0,0,1-2.5-2.5V4.5H5a4.992,4.992,0,0,0-5,5V79.566a4.992,4.992,0,0,0,5,5H6.673V80.4a2.51,2.51,0,0,1,2.5-2.5h8.341a2.51,2.51,0,0,1,2.5,2.5v4.17H86.743V80.4a2.51,2.51,0,0,1,2.5-2.5h8.341a2.51,2.51,0,0,1,2.5,2.5v4.17h1.668a4.992,4.992,0,0,0,5-5V9.5A4.992,4.992,0,0,0,101.756,4.5ZM20.018,68.723a2.51,2.51,0,0,1-2.5,2.5H9.175a2.51,2.51,0,0,1-2.5-2.5V60.383a2.51,2.51,0,0,1,2.5-2.5h8.341a2.51,2.51,0,0,1,2.5,2.5Zm0-20.018a2.51,2.51,0,0,1-2.5,2.5H9.175a2.51,2.51,0,0,1-2.5-2.5V40.365a2.51,2.51,0,0,1,2.5-2.5h8.341a2.51,2.51,0,0,1,2.5,2.5Zm0-20.018a2.51,2.51,0,0,1-2.5,2.5H9.175a2.51,2.51,0,0,1-2.5-2.5V20.347a2.51,2.51,0,0,1,2.5-2.5h8.341a2.51,2.51,0,0,1,2.5,2.5ZM76.734,72.06a2.51,2.51,0,0,1-2.5,2.5h-41.7a2.51,2.51,0,0,1-2.5-2.5V52.042a2.51,2.51,0,0,1,2.5-2.5h41.7a2.51,2.51,0,0,1,2.5,2.5Zm0-35.031a2.51,2.51,0,0,1-2.5,2.5h-41.7a2.51,2.51,0,0,1-2.5-2.5V17.011a2.51,2.51,0,0,1,2.5-2.5h41.7a2.51,2.51,0,0,1,2.5,2.5Zm23.354,31.695a2.51,2.51,0,0,1-2.5,2.5H89.245a2.51,2.51,0,0,1-2.5-2.5V60.383a2.51,2.51,0,0,1,2.5-2.5h8.341a2.51,2.51,0,0,1,2.5,2.5Zm0-20.018a2.51,2.51,0,0,1-2.5,2.5H89.245a2.51,2.51,0,0,1-2.5-2.5V40.365a2.51,2.51,0,0,1,2.5-2.5h8.341a2.51,2.51,0,0,1,2.5,2.5Zm0-20.018a2.51,2.51,0,0,1-2.5,2.5H89.245a2.51,2.51,0,0,1-2.5-2.5V20.347a2.51,2.51,0,0,1,2.5-2.5h8.341a2.51,2.51,0,0,1,2.5,2.5Z" transform="translate(1329 1601.615)" fill="#4e4e4e"/></g></svg>