<svg xmlns="http://www.w3.org/2000/svg" xmlns:xlink="http://www.w3.org/1999/xlink" width="1924.875" height="1095.28" viewBox="0 0 1924.875 1095.28"><defs><linearGradient id="a" x1="1" y1="0.269" x2="-0.028" y2="1" gradientUnits="objectBoundingBox"><stop offset="0" stop-color="#725e97"/><stop offset="1" stop-color="#f7aab0" stop-opacity="0.89"/></linearGradient></defs><g transform="translate(0.668 -4752.504)"><path d="M1222.4,357.579c-148.516-5.337-226.124-107.15-425.034-109.422s-331.2,121.61-463.562,335.149c-63.267,102.071-64.487,171.822-65.869,242.819-1.5,77.17,0,155.681,0,276.19,203.661,0,1109.354,7.9,1363.139,7.9,173.59,0,347.149-6.832,560.068,0-.785-141.94-5.726-329.569,0-341.635V234.892S2111.383,43.108,1961.98,43.108s-283.956,102.6-368.448,191.784C1506.515,327.085,1353.524,362.318,1222.4,357.579Z" transform="translate(-266.936 4709.396)" opacity="0.2" fill="url(#a)"/><path d="M1222.4,312.016c-148.516-4.564-226.124-91.625-425.034-93.568s-331.2,103.99-463.562,286.59c-63.267,87.283-64.487,146.927-65.869,207.637-1.5,65.989,0,139.879,0,242.928H2191.143l-.179-9.471s1.026,112.794.179-83.476-.179-181.847-.179-181.847l.179-4.464V207.105s-79.76-164-229.163-164-283.956,87.738-368.448,164C1506.515,285.94,1353.524,316.069,1222.4,312.016Z" transform="translate(-267.936 4869.396)" opacity="0.7" fill="url(#a)"/></g></svg>