<svg id="footer" xmlns="http://www.w3.org/2000/svg" width="1924.875" height="638.681" viewBox="0 0 1924.875 638.681">
  <path id="Path_326" data-name="Path 326" d="M1238.471,417.875c-189.93,6.918-242.723,117.6-441.488,118.9S426.22,464.464,333.756,344.848s-64.684-105.592-65.822-139.053c-1.5-44.192,0-89.153,0-158.164,203.514,0,1108.551-4.523,1362.153-4.523,173.465,0,553.941,172.189,559.662,179.1v234.28s-79.7,175.741-229,197.713S1677,595.441,1592.571,544.371C1505.617,491.576,1428.4,410.957,1238.471,417.875Z" transform="translate(-264.875 -19.225)" fill="#fff" opacity="0.2"/>
  <path id="Path_325" data-name="Path 325" d="M1217.81,330.842C1035.146,346.49,969.641,473.1,770.731,474.085s-303.7-70.931-391.057-169.106-110.354-172.263-111.737-203.1c-1.5-33.514,0,5.131,0-47.2H2191.143l-.179,4.81s1.026-57.285.179,42.395-.179,92.355-.179,92.355l.179,2.267-.179,48.809s-79.625,225.417-228.983,272.793-283.956-44.559-368.448-83.289C1506.515,394.781,1400.474,315.195,1217.81,330.842Z" transform="translate(-267.268 -43.108)" fill="#fff"/>
</svg>
