<svg width="537" height="554" viewBox="0 0 537 554" fill="none" xmlns="http://www.w3.org/2000/svg">
<g id="Group 2">
<g id="floor">
<path id="Vector" d="M516.795 534.555L534.211 509.314L516.795 537.293V540.157C515.546 540.151 514.309 540.115 513.085 540.049L514.375 503.25L514.355 502.966L514.387 502.911L514.51 499.435L496.095 472.008L514.517 496.836L514.575 497.572L515.55 469.772L499.703 441.372L515.654 464.888L516.176 407.273V407.082V407.271L516.706 452.69L531.678 434.423L516.707 456.602L516.731 481.48L530.596 457.367L516.737 485.138L516.75 498.971L536.896 465.392L516.752 503.797L516.795 534.555Z" fill="#F7AAB0"/>
<path id="Vector_2" d="M63.035 525.053L97.561 475.017L63.04 530.481V536.158C60.5633 536.147 58.1117 536.076 55.685 535.946L58.243 463.003L58.2039 462.44L58.267 462.332L58.5109 455.439L22.011 401.061L58.529 450.279L58.643 451.738L60.575 396.627L29.1609 340.327L60.783 386.945L61.817 272.733L61.822 272.353L61.8289 272.727L62.879 362.764L92.559 326.552L62.8809 370.519L62.9279 419.836L90.414 372.036L62.94 427.088L62.966 454.511L102.902 387.944L62.97 464.077L63.035 525.053Z" fill="#F7AAB0"/>
<path id="Vector_3" d="M262.515 553.796C407.498 553.796 525.03 547.61 525.03 539.98C525.03 532.349 407.498 526.164 262.515 526.164C117.532 526.164 0 532.349 0 539.98C0 547.61 117.532 553.796 262.515 553.796Z" fill="#725E97" fill-opacity="0.52"/>
<path id="Vector_4" d="M388.461 517.435C388.493 513.287 387.635 509.181 385.946 505.393C382.402 507.936 379.481 511.25 377.403 515.086C375.325 511.25 372.404 507.936 368.86 505.393C367.171 509.181 366.313 513.287 366.345 517.435C362.77 515.437 358.813 514.218 354.734 513.857C354.734 513.857 355.499 523.225 361.758 529.318C367.324 534.736 375.358 535.742 377.073 535.898L377.121 535.931L377.134 535.904C377.308 535.919 377.402 535.924 377.402 535.924C377.402 535.924 377.387 535.747 377.347 535.424L377.402 535.293L377.458 535.424C377.417 535.744 377.402 535.924 377.402 535.924C377.402 535.924 377.496 535.919 377.67 535.904L377.683 535.931L377.731 535.898C379.444 535.742 387.48 534.736 393.046 529.318C399.306 523.224 400.071 513.857 400.071 513.857C395.992 514.218 392.035 515.437 388.46 517.435H388.461Z" fill="#725E97" fill-opacity="0.85"/>
</g>
<path id="note1" d="M380.139 70.4712L380.161 70.4674L376.914 50.9956L358.956 56.8465L361.643 74.2631C360.717 73.663 359.614 73.4199 358.53 73.5771C357.446 73.7344 356.452 74.2819 355.725 75.1217C354.998 75.9615 354.587 77.039 354.563 78.1616C354.54 79.2842 354.906 80.3788 355.597 81.2498C356.288 82.1208 357.258 82.7114 358.335 82.9162C359.411 83.121 360.524 82.9266 361.473 82.3677C362.423 81.8088 363.148 80.9218 363.518 79.8652C363.889 78.8087 363.881 77.6514 363.497 76.6001H363.513L360.63 57.9094L375.732 52.989L378.295 68.3794C377.347 67.8063 376.23 67.6006 375.146 67.7994C374.063 67.9983 373.085 68.5887 372.389 69.4636C371.693 70.3385 371.326 71.44 371.354 72.5685C371.382 73.697 371.804 74.7779 372.542 75.6153C373.28 76.4526 374.286 76.9911 375.378 77.133C376.47 77.275 377.576 77.0111 378.494 76.3891C379.413 75.7671 380.084 74.8283 380.386 73.7426C380.687 72.657 380.6 71.4964 380.139 70.4712V70.4712Z" fill="#725E97"/>
<path id="note4" d="M409.61 21.797L409.628 21.8002L412.298 6.12192L396.748 5.64766L394.189 19.6105C393.628 18.9012 392.834 18.4144 391.947 18.237C391.061 18.0596 390.14 18.2031 389.35 18.6419C388.56 19.0807 387.951 19.7863 387.633 20.6325C387.315 21.4787 387.308 22.4104 387.614 23.2611C387.919 24.1119 388.518 24.8263 389.301 25.2766C390.085 25.7269 391.004 25.8839 391.892 25.7195C392.781 25.555 393.583 25.0799 394.154 24.3789C394.725 23.678 395.028 22.7969 395.009 21.8931L395.022 21.8977L397.766 6.91233L410.845 7.31138L408.734 19.7054C408.149 19.0093 407.335 18.5457 406.438 18.3986C405.541 18.2514 404.621 18.4305 403.845 18.9033C403.068 19.3761 402.487 20.1113 402.206 20.9758C401.925 21.8402 401.964 22.7767 402.314 23.6154C402.664 24.4541 403.303 25.1396 404.115 25.5477C404.928 25.9557 405.859 26.0593 406.741 25.8397C407.623 25.62 408.397 25.0917 408.923 24.3504C409.449 23.6091 409.692 22.7039 409.608 21.7989L409.61 21.797Z" fill="#725E97"/>
<path id="note2" d="M320.307 59.7751H320.322L317.735 43.9956L316.458 44.1906L318.7 57.8707C317.898 57.3811 316.941 57.1827 316.002 57.3111C315.062 57.4394 314.2 57.8861 313.57 58.5713C312.94 59.2565 312.583 60.1356 312.563 61.0515C312.543 61.9674 312.86 62.8605 313.459 63.5711C314.058 64.2818 314.899 64.7637 315.832 64.9308C316.765 65.0979 317.73 64.9393 318.553 64.4834C319.376 64.0274 320.004 63.3038 320.326 62.4418C320.647 61.5798 320.64 60.6355 320.307 59.7778V59.7751Z" fill="#725E97"/>
<path id="note5" d="M470.148 37.2132L470.165 37.2158L470.006 15.93L468.389 15.9566L468.526 34.4102C467.629 33.6194 466.484 33.1849 465.297 33.1845C464.11 33.1841 462.958 33.6178 462.047 34.408C461.136 35.1982 460.525 36.2936 460.323 37.4983C460.121 38.703 460.342 39.9386 460.946 40.9844C461.55 42.0302 462.498 42.8179 463.619 43.207C464.741 43.596 465.965 43.5609 467.071 43.108C468.177 42.6551 469.093 41.8139 469.657 40.7347C470.22 39.6555 470.394 38.4085 470.147 37.2167L470.148 37.2132Z" fill="#725E97"/>
<path id="note3" d="M426.182 66.8195C426.185 65.5302 425.759 64.2764 424.971 63.2558C424.184 62.2351 423.079 61.5054 421.831 61.1817C420.583 60.858 419.262 60.9586 418.078 61.4677C416.893 61.9768 415.912 62.8654 415.288 63.9937C414.664 65.122 414.433 66.4258 414.631 67.6997C414.83 68.9737 415.446 70.1455 416.384 71.0305C417.321 71.9156 418.527 72.4636 419.81 72.5883C421.093 72.7131 422.382 72.4074 423.472 71.7195L420.209 92.3425L422.068 92.6365L425.832 68.8485H425.811C426.056 68.1999 426.181 67.5126 426.182 66.8195V66.8195Z" fill="#725E97"/>
<g id="girl">
<path id="Vector_5" d="M225.86 451.979L236.873 468.499L253.393 455.65L242.38 441.883L225.86 451.979Z" fill="#FAD2B8"/>
<path id="Vector_6" d="M239.001 459.636C239.001 459.636 223.228 460.369 227.674 468.707C232.12 477.045 235.589 524.092 248.274 521.366C260.959 518.64 272.474 504.22 272.329 494.294C272.184 484.368 270.599 480.062 270.599 480.062C270.599 480.062 267.199 473.491 269.462 471.677C271.725 469.863 272.583 458.395 267.187 454.907C261.791 451.419 246.197 446.807 246.197 446.807C246.197 446.807 244.623 461.083 239.001 459.636Z" fill="#2F2E41"/>
<path id="Vector_7" d="M246.973 490.527L243.301 510.718L262.575 512.553V496.953L246.973 490.527Z" fill="#FAD2B8"/>
<path id="Vector_8" d="M207.504 217.024C207.504 217.024 197.404 250.982 194.655 271.174C194.655 271.174 139.587 345.515 149.683 377.638C159.779 409.761 189.147 474.006 189.147 474.006C189.147 474.006 238.708 453.815 248.804 442.801L212.092 390.487C212.092 390.487 217.599 384.062 209.339 380.387C201.079 376.712 208.421 372.127 208.421 372.127C208.421 372.127 224.021 319.813 239.621 314.306L293.771 303.293C293.771 303.293 290.1 225.281 277.251 211.514C277.256 211.517 213.01 212.435 207.504 217.024Z" fill="#2F2E41"/>
<path id="Vector_9" d="M251.558 502.456C251.558 502.456 242.38 489.607 237.791 497.867C233.202 506.127 195.572 534.579 204.75 543.757C213.928 552.935 232.284 554.77 240.544 549.264C248.804 543.758 251.557 540.086 251.557 540.086C251.557 540.086 255.228 533.661 257.982 534.579C260.736 535.497 270.831 529.99 270.831 523.566C270.831 517.142 266.242 501.539 266.242 501.539C266.242 501.539 253.393 507.965 251.558 502.456Z" fill="#2F2E41"/>
<path id="Vector_10" d="M237.791 307.885L250.64 418.938C250.64 418.938 243.298 450.138 241.462 474.006C239.626 497.874 241.462 496.951 241.462 496.951C241.462 496.951 282.762 513.471 290.105 502.458C297.448 491.445 293.776 303.297 293.776 303.297L271.753 283.105L237.791 307.885Z" fill="#2F2E41"/>
<path id="Vector_11" d="M215.385 59.9645C224.913 37.4835 249.167 33.2375 249.167 33.2375C249.167 33.2375 272.52 27.0075 292.023 56.6785C310.201 84.3335 333.643 110.245 303.914 121.279L296.062 104.796L295.12 123.776C290.797 124.676 286.428 125.339 282.032 125.762C249.057 129.112 217.972 134.682 217.397 122.762C216.631 106.918 206.213 81.5955 215.385 59.9645Z" fill="#2F2E41"/>
<path id="Vector_12" d="M254.312 104.136C269.012 104.136 280.928 92.2192 280.928 77.5196C280.928 62.82 269.012 50.9036 254.312 50.9036C239.612 50.9036 227.696 62.82 227.696 77.5196C227.696 92.2192 239.612 104.136 254.312 104.136Z" fill="#FAD2B8"/>
<path id="Vector_13" d="M246.507 94.5025C246.507 94.5025 246.048 121.577 243.295 128.002C240.542 134.427 292.395 122.954 292.395 122.954C292.395 122.954 274.039 110.105 271.286 92.6675L246.507 94.5025Z" fill="#FAD2B8"/>
<path id="Vector_14" d="M250.64 116.985L245.628 113.299L210.257 115.15L202.915 195.916C202.915 195.916 181.806 220.696 207.504 220.696C233.202 220.696 257.065 208.765 275.421 217.025C293.777 225.285 309.379 129.829 309.379 129.829L281.94 113.298C281.94 113.298 269.914 127.998 250.64 116.985Z" fill="white"/>
<path id="Vector_15" d="M220.353 182.147L271.753 193.161V205.092L220.353 206.928C220.353 206.928 214.846 185.818 220.353 182.147Z" fill="#FAD2B8"/>
<path id="Vector_16" d="M220.352 119.739L210.252 115.15C210.252 115.15 198.321 117.903 197.403 127.999C196.485 138.095 179.047 203.258 192.814 206.011C206.581 208.764 224.937 208.764 224.937 208.764C224.937 208.764 213.006 192.244 227.69 183.064L216.677 177.557C216.677 177.557 205.664 152.777 213.006 139.927C220.348 127.077 220.352 119.739 220.352 119.739Z" fill="white"/>
<path id="Vector_17" d="M220.773 51.7977L245.079 39.0657L278.646 44.2747L285.59 74.9477L268.303 74.2827L263.473 63.0137V74.0967L255.497 73.7897L250.867 55.8487L247.974 74.9487L219.616 74.3697L220.773 51.7977Z" fill="#2F2E41"/>
<path id="Vector_18" d="M281.081 83.4906C283.784 83.4906 285.976 79.6555 285.976 74.9246C285.976 70.1938 283.784 66.3586 281.081 66.3586C278.378 66.3586 276.186 70.1938 276.186 74.9246C276.186 79.6555 278.378 83.4906 281.081 83.4906Z" fill="#FAD2B8"/>
<path id="Vector_19" d="M281.551 80.9896C283.396 80.9896 284.892 79.4938 284.892 77.6486C284.892 75.8034 283.396 74.3076 281.551 74.3076C279.706 74.3076 278.21 75.8034 278.21 77.6486C278.21 79.4938 279.706 80.9896 281.551 80.9896Z" fill="white"/>
<path id="Vector_20" d="M282.985 78.7736C283.285 78.7736 283.528 78.0443 283.528 77.1446C283.528 76.245 283.285 75.5156 282.985 75.5156C282.685 75.5156 282.442 76.245 282.442 77.1446C282.442 78.0443 282.685 78.7736 282.985 78.7736Z" fill="#2F2E41"/>
<path id="Vector_21" d="M282.898 87.3446C282.786 87.3446 282.675 87.3225 282.571 87.2795C282.467 87.2365 282.373 87.1736 282.293 87.0942C282.214 87.0148 282.151 86.9205 282.108 86.8168C282.065 86.713 282.043 86.6019 282.043 86.4896L281.188 79.6526H283.752V86.4896C283.752 86.7162 283.662 86.9335 283.502 87.0938C283.342 87.2541 283.125 87.3443 282.898 87.3446V87.3446Z" fill="white"/>
<path id="Vector_22" opacity="0.1" d="M216.244 144.64L207.578 182.191H227.8L211.911 178.58L216.244 144.64Z" fill="black"/>
<path id="Vector_23" d="M320.651 206.679L320.459 206.506L325.203 201.242C325.564 200.842 325.842 200.375 326.022 199.867C326.202 199.36 326.281 198.821 326.253 198.284C326.225 197.746 326.091 197.219 325.86 196.732C325.628 196.246 325.303 195.81 324.903 195.45L313.752 185.4C313.352 185.039 312.885 184.761 312.377 184.58C311.87 184.4 311.332 184.322 310.794 184.35C310.256 184.378 309.729 184.511 309.242 184.743C308.756 184.974 308.32 185.3 307.96 185.7L281.935 214.577C281.574 214.977 281.296 215.444 281.116 215.951C280.935 216.459 280.857 216.997 280.885 217.535C280.913 218.073 281.046 218.6 281.278 219.086C281.51 219.572 281.835 220.008 282.235 220.369L293.387 230.42C293.787 230.78 294.254 231.059 294.762 231.239C295.269 231.419 295.807 231.498 296.345 231.47C296.883 231.442 297.41 231.308 297.896 231.077C298.383 230.845 298.818 230.52 299.179 230.12L317.079 210.253L317.271 210.426L320.651 206.679Z" fill="#3F3D56"/>
<path id="Vector_24" d="M311.902 201.499C313.362 201.499 314.545 200.315 314.545 198.856C314.545 197.396 313.362 196.213 311.902 196.213C310.442 196.213 309.259 197.396 309.259 198.856C309.259 200.315 310.442 201.499 311.902 201.499Z" fill="#F7AAB0"/>
<path id="Vector_25" d="M293.576 197.263C293.576 197.263 324.862 204.835 317.654 215.632C310.446 226.429 281.986 206.695 281.986 206.695L293.576 197.263Z" fill="#FAD2B8"/>
<path id="Vector_26" d="M301.118 129.833H309.379C309.379 129.833 318.557 139.933 316.721 149.107C314.885 158.281 309.379 201.421 309.379 201.421C309.379 201.421 281.845 227.121 268.079 213.352C254.313 199.583 264.408 186.736 264.408 186.736C264.408 186.736 282.764 201.422 292.86 182.148L301.118 129.833Z" fill="white"/>
<path id="Vector_27" d="M292.91 192.412L299.231 129.957C299.231 129.957 312.49 90.5286 299.547 89.5626C286.604 88.5966 285.694 126.925 285.694 126.925L263.152 195.263C263.152 195.263 275.523 207.38 292.91 192.412Z" fill="#FAD2B8"/>
</g>
</g>
</svg>
