<svg  viewBox="0 0 1171 1103" fill="none" xmlns="http://www.w3.org/2000/svg">
<g id="header 1" clip-path="url(#clip0)">
<g id="cloud">
<path id="Vector" opacity="0.05" d="M570.855 134.663C482.029 131.05 435.612 62.136 316.647 60.599C197.682 59.062 139.035 123.113 45.734 335.649C-92.884 749.074 123.041 693.756 173.69 993.635C205.679 1159.59 512.136 1100.47 852.784 1047.78C913.152 1035.29 854.866 1045.69 1004.74 1016.55C1069.28 995.733 1093.36 969.373 1124.02 939.528C1161.7 906.888 1173.3 834.552 1169.51 721.799C1169.04 625.724 1106.72 567.865 1106.02 568.299C1012.51 485.526 1060.54 420.489 1063.96 412.321C1118.34 311.521 1125.92 238.568 1124.02 207.3C1127.21 133.851 1072.31 57.926 1006.92 23.135C938.383 -13.335 843.354 -8.74804 792.824 51.615C740.78 114.022 649.277 137.871 570.855 134.663Z" fill="url(#paint0_linear)"/>
<path id="Vector_2" opacity="0.13" d="M581.173 196.87C513.031 194.099 477.423 141.232 386.16 140.053C294.897 138.874 249.907 188.01 178.332 351.053C71.992 668.208 237.632 625.772 276.492 855.821C301.032 983.13 536.128 937.781 797.453 897.354C843.764 887.772 799.053 895.754 914.029 873.4C963.529 857.431 982.012 837.209 1005.53 814.314C1034.43 789.275 1043.33 733.783 1040.42 647.285C1040.06 573.585 992.254 529.196 991.72 529.532C919.985 466.032 956.83 416.141 959.457 409.875C1001.17 332.551 1006.98 276.582 1005.53 252.595C1007.97 196.249 965.859 138.004 915.7 111.315C863.12 83.3369 790.219 86.8559 751.452 133.163C711.529 181.036 641.334 199.331 581.173 196.87Z" fill="url(#paint1_linear)"/>
<path id="Vector_3" opacity="0.2" d="M616.111 287.275C559.781 284.984 530.345 241.281 454.901 240.306C379.457 239.331 342.266 279.95 283.101 414.733C195.194 676.913 332.126 641.833 364.246 832.005C384.532 937.246 578.877 899.758 794.904 866.339C833.187 858.418 796.224 865.019 891.273 846.539C932.197 833.339 947.473 816.621 966.916 797.695C990.808 776.995 998.163 731.123 995.759 659.619C995.459 598.692 955.942 561.999 955.499 562.277C896.199 509.785 926.657 468.541 928.829 463.361C963.311 399.44 968.118 353.173 966.916 333.344C968.935 286.765 934.122 238.616 892.657 216.553C849.188 193.422 788.923 196.331 756.876 234.611C723.872 274.185 665.844 289.311 616.111 287.275Z" fill="url(#paint2_linear)"/>
</g>
<g id="floor">
<path id="Vector_4" d="M908.233 813.559L925.649 788.318L908.233 816.297V819.161C906.984 819.156 905.747 819.12 904.523 819.054L905.813 782.254L905.793 781.97L905.825 781.916L905.948 778.439L887.533 751.012L905.955 775.84L906.013 776.576L906.988 748.776L891.141 720.376L907.092 743.892L907.614 686.278V686.086V686.275L908.144 731.694L923.116 713.427L908.145 735.606L908.169 760.484L922.034 736.371L908.175 764.142L908.188 777.975L928.334 744.396L908.19 782.801L908.233 813.559Z" fill="#F7AAB0"/>
<path id="Vector_5" d="M454.473 804.057L488.999 754.021L454.478 809.485V815.162C452.001 815.151 449.55 815.081 447.123 814.95L449.681 742.007L449.642 741.444L449.705 741.336L449.949 734.443L413.449 680.065L449.967 729.283L450.081 730.742L452.013 675.631L420.599 619.331L452.221 665.949L453.255 551.737L453.26 551.357L453.267 551.731L454.317 641.768L483.997 605.556L454.319 649.523L454.366 698.84L481.852 651.04L454.378 706.092L454.404 733.515L494.34 666.948L454.408 743.081L454.473 804.057Z" fill="#F7AAB0"/>
<path id="Vector_6" d="M653.953 832.8C798.936 832.8 916.468 826.614 916.468 818.984C916.468 811.354 798.936 805.168 653.953 805.168C508.97 805.168 391.438 811.354 391.438 818.984C391.438 826.614 508.97 832.8 653.953 832.8Z" fill="#725E97" fill-opacity="0.52"/>
<path id="Vector_7" d="M779.899 796.439C779.931 792.291 779.073 788.185 777.384 784.397C773.84 786.94 770.919 790.255 768.841 794.09C766.763 790.255 763.842 786.94 760.298 784.397C758.609 788.185 757.751 792.291 757.783 796.439C754.208 794.442 750.251 793.222 746.172 792.861C746.172 792.861 746.937 802.229 753.196 808.322C758.762 813.74 766.796 814.746 768.511 814.902L768.559 814.935L768.572 814.908C768.746 814.923 768.84 814.928 768.84 814.928C768.84 814.928 768.825 814.751 768.785 814.428L768.84 814.297L768.896 814.428C768.855 814.748 768.84 814.928 768.84 814.928C768.84 814.928 768.934 814.923 769.108 814.908L769.121 814.935L769.169 814.902C770.882 814.746 778.918 813.74 784.484 808.322C790.744 802.228 791.509 792.861 791.509 792.861C787.43 793.222 783.473 794.442 779.898 796.439H779.899Z" fill="#725E97" fill-opacity="0.85"/>
</g>
<path id="note1" d="M787.323 354.083L787.359 354.077L782.076 323.19L752.861 332.471L757.232 360.098C755.727 359.146 753.932 358.76 752.168 359.01C750.405 359.259 748.787 360.128 747.605 361.46C746.423 362.792 745.753 364.501 745.714 366.282C745.676 368.063 746.272 369.799 747.397 371.18C748.521 372.562 750.099 373.499 751.851 373.824C753.602 374.149 755.412 373.84 756.956 372.954C758.501 372.067 759.68 370.66 760.283 368.984C760.886 367.308 760.874 365.473 760.248 363.805H760.275L755.584 334.157L780.153 326.352L784.323 350.765C782.78 349.856 780.963 349.529 779.2 349.845C777.437 350.16 775.846 351.097 774.714 352.485C773.583 353.872 772.986 355.62 773.031 357.41C773.077 359.2 773.762 360.914 774.963 362.243C776.164 363.571 777.801 364.425 779.578 364.65C781.354 364.875 783.153 364.457 784.647 363.47C786.142 362.484 787.233 360.994 787.724 359.272C788.215 357.55 788.073 355.709 787.323 354.083V354.083Z" fill="#725E97"/>
<path id="note4" d="M927.184 365.905L927.22 365.899L921.937 335.012L892.722 344.293L897.09 371.919C895.585 370.967 893.79 370.581 892.026 370.831C890.263 371.08 888.645 371.949 887.463 373.281C886.281 374.613 885.611 376.322 885.573 378.103C885.534 379.884 886.131 381.62 887.255 383.001C888.379 384.383 889.957 385.32 891.709 385.645C893.46 385.97 895.27 385.661 896.814 384.775C898.359 383.888 899.539 382.481 900.141 380.805C900.744 379.129 900.732 377.294 900.106 375.626H900.133L895.442 345.978L920.012 338.173L924.188 362.59C922.647 361.678 920.83 361.349 919.066 361.661C917.303 361.974 915.71 362.908 914.576 364.294C913.442 365.68 912.842 367.427 912.885 369.217C912.928 371.007 913.611 372.723 914.81 374.053C916.009 375.383 917.645 376.24 919.422 376.468C921.198 376.695 922.997 376.279 924.493 375.294C925.989 374.31 927.082 372.822 927.576 371.1C928.069 369.379 927.929 367.537 927.181 365.91L927.184 365.905Z" fill="#725E97"/>
<path id="note2" d="M827.216 388.069H827.237L823.473 364.281L821.614 364.575L824.877 385.198C823.71 384.46 822.318 384.161 820.951 384.354C819.583 384.548 818.329 385.221 817.412 386.254C816.496 387.287 815.976 388.612 815.946 389.993C815.917 391.374 816.379 392.72 817.251 393.792C818.122 394.863 819.346 395.589 820.704 395.841C822.062 396.093 823.465 395.854 824.663 395.167C825.861 394.479 826.776 393.388 827.243 392.089C827.711 390.789 827.701 389.366 827.216 388.073V388.069Z" fill="#725E97"/>
<path id="note3" d="M859.148 358.537C859.151 357.248 858.725 355.994 857.938 354.973C857.15 353.953 856.045 353.223 854.797 352.899C853.549 352.576 852.229 352.676 851.044 353.185C849.859 353.694 848.878 354.583 848.254 355.711C847.63 356.84 847.399 358.143 847.597 359.417C847.796 360.691 848.412 361.863 849.35 362.748C850.287 363.633 851.493 364.181 852.776 364.306C854.059 364.431 855.348 364.125 856.438 363.437L853.175 384.06L855.034 384.354L858.798 360.566H858.777C859.022 359.917 859.147 359.23 859.148 358.537V358.537Z" fill="#725E97"/>
<g id="girl">
<path id="Vector_8" d="M617.298 730.983L628.311 747.503L644.831 734.654L633.818 720.887L617.298 730.983Z" fill="#FAD2B8"/>
<path id="Vector_9" d="M630.439 738.64C630.439 738.64 614.666 739.373 619.112 747.711C623.558 756.049 627.027 803.096 639.712 800.37C652.397 797.644 663.912 783.224 663.767 773.298C663.622 763.372 662.037 759.066 662.037 759.066C662.037 759.066 658.637 752.495 660.9 750.681C663.163 748.867 664.021 737.399 658.625 733.911C653.229 730.423 637.635 725.811 637.635 725.811C637.635 725.811 636.061 740.087 630.439 738.64Z" fill="#2F2E41"/>
<path id="Vector_10" d="M638.411 769.531L634.739 789.722L654.013 791.557V775.957L638.411 769.531Z" fill="#FAD2B8"/>
<path id="Vector_11" d="M598.942 496.028C598.942 496.028 588.842 529.986 586.093 550.178C586.093 550.178 531.025 624.519 541.121 656.642C551.217 688.765 580.585 753.01 580.585 753.01C580.585 753.01 630.146 732.819 640.242 721.805L603.53 669.491C603.53 669.491 609.037 663.066 600.777 659.391C592.517 655.716 599.859 651.131 599.859 651.131C599.859 651.131 615.459 598.817 631.059 593.31L685.209 582.297C685.209 582.297 681.538 504.285 668.689 490.518C668.694 490.521 604.448 491.439 598.942 496.028Z" fill="#2F2E41"/>
<path id="Vector_12" d="M642.996 781.46C642.996 781.46 633.818 768.611 629.229 776.871C624.64 785.131 587.01 813.583 596.188 822.761C605.366 831.939 623.722 833.774 631.982 828.268C640.242 822.762 642.995 819.09 642.995 819.09C642.995 819.09 646.666 812.665 649.42 813.583C652.174 814.501 662.269 808.994 662.269 802.57C662.269 796.146 657.68 780.543 657.68 780.543C657.68 780.543 644.831 786.969 642.996 781.46Z" fill="#2F2E41"/>
<path id="Vector_13" d="M629.229 586.89L642.078 697.943C642.078 697.943 634.736 729.143 632.9 753.011C631.064 776.879 632.9 775.956 632.9 775.956C632.9 775.956 674.2 792.476 681.543 781.463C688.886 770.45 685.214 582.302 685.214 582.302L663.191 562.11L629.229 586.89Z" fill="#2F2E41"/>
<path id="Vector_14" d="M606.823 338.969C616.351 316.488 640.605 312.242 640.605 312.242C640.605 312.242 663.958 306.012 683.461 335.683C701.639 363.338 725.081 389.249 695.352 400.283L687.5 383.8L686.558 402.78C682.235 403.68 677.866 404.343 673.47 404.766C640.495 408.116 609.41 413.686 608.835 401.766C608.069 385.922 597.651 360.6 606.823 338.969Z" fill="#2F2E41"/>
<path id="Vector_15" d="M645.75 383.14C660.45 383.14 672.366 371.224 672.366 356.524C672.366 341.824 660.45 329.908 645.75 329.908C631.05 329.908 619.134 341.824 619.134 356.524C619.134 371.224 631.05 383.14 645.75 383.14Z" fill="#FAD2B8"/>
<path id="Vector_16" d="M637.945 373.507C637.945 373.507 637.486 400.582 634.733 407.007C631.98 413.432 683.833 401.959 683.833 401.959C683.833 401.959 665.477 389.11 662.724 371.672L637.945 373.507Z" fill="#FAD2B8"/>
<path id="Vector_17" d="M642.078 395.989L637.066 392.303L601.695 394.154L594.353 474.92C594.353 474.92 573.244 499.7 598.942 499.7C624.64 499.7 648.503 487.769 666.859 496.029C685.215 504.289 700.817 408.833 700.817 408.833L673.378 392.302C673.378 392.302 661.352 407.002 642.078 395.989Z" fill="white"/>
<path id="Vector_18" d="M611.791 461.152L663.191 472.166V484.097L611.791 485.933C611.791 485.933 606.284 464.823 611.791 461.152Z" fill="#FAD2B8"/>
<path id="Vector_19" d="M611.79 398.743L601.69 394.154C601.69 394.154 589.759 396.907 588.841 407.003C587.923 417.099 570.485 482.262 584.252 485.015C598.019 487.768 616.375 487.768 616.375 487.768C616.375 487.768 604.444 471.248 619.128 462.068L608.115 456.561C608.115 456.561 597.102 431.781 604.444 418.931C611.786 406.081 611.79 398.743 611.79 398.743Z" fill="white"/>
<path id="Vector_20" d="M612.211 330.802L636.517 318.07L670.084 323.279L677.028 353.952L659.741 353.287L654.911 342.018V353.101L646.935 352.794L642.305 334.853L639.412 353.953L611.054 353.374L612.211 330.802Z" fill="#2F2E41"/>
<path id="Vector_21" d="M672.519 362.495C675.222 362.495 677.414 358.66 677.414 353.929C677.414 349.198 675.222 345.363 672.519 345.363C669.816 345.363 667.624 349.198 667.624 353.929C667.624 358.66 669.816 362.495 672.519 362.495Z" fill="#FAD2B8"/>
<path id="Vector_22" d="M672.989 359.994C674.834 359.994 676.33 358.498 676.33 356.653C676.33 354.808 674.834 353.312 672.989 353.312C671.144 353.312 669.648 354.808 669.648 356.653C669.648 358.498 671.144 359.994 672.989 359.994Z" fill="white"/>
<path id="Vector_23" d="M674.423 357.778C674.723 357.778 674.966 357.049 674.966 356.149C674.966 355.249 674.723 354.52 674.423 354.52C674.123 354.52 673.88 355.249 673.88 356.149C673.88 357.049 674.123 357.778 674.423 357.778Z" fill="#2F2E41"/>
<path id="Vector_24" d="M674.336 366.349C674.224 366.349 674.113 366.327 674.009 366.284C673.905 366.241 673.811 366.178 673.731 366.099C673.652 366.019 673.589 365.925 673.546 365.821C673.503 365.717 673.481 365.606 673.481 365.494L672.626 358.657H675.19V365.494C675.19 365.721 675.1 365.938 674.94 366.098C674.78 366.259 674.563 366.349 674.336 366.349V366.349Z" fill="white"/>
<path id="Vector_25" opacity="0.1" d="M607.682 423.644L599.016 461.195H619.238L603.349 457.584L607.682 423.644Z" fill="black"/>
<path id="Vector_26" d="M712.089 485.683L711.897 485.51L716.641 480.246C717.002 479.846 717.28 479.379 717.46 478.872C717.64 478.364 717.719 477.826 717.691 477.288C717.663 476.75 717.529 476.223 717.298 475.737C717.066 475.25 716.741 474.815 716.341 474.454L705.19 464.404C704.79 464.043 704.323 463.765 703.815 463.585C703.308 463.405 702.77 463.326 702.232 463.354C701.694 463.382 701.167 463.516 700.68 463.747C700.194 463.979 699.758 464.304 699.398 464.704L673.373 493.581C673.012 493.981 672.734 494.448 672.554 494.956C672.373 495.463 672.295 496.001 672.323 496.539C672.351 497.077 672.484 497.604 672.716 498.091C672.948 498.577 673.273 499.013 673.673 499.373L684.825 509.424C685.225 509.785 685.692 510.063 686.2 510.243C686.707 510.424 687.245 510.502 687.783 510.474C688.321 510.446 688.848 510.313 689.334 510.081C689.821 509.849 690.256 509.524 690.617 509.124L708.517 489.257L708.709 489.43L712.089 485.683Z" fill="#3F3D56"/>
<path id="Vector_27" d="M703.34 480.503C704.8 480.503 705.983 479.32 705.983 477.86C705.983 476.4 704.8 475.217 703.34 475.217C701.88 475.217 700.697 476.4 700.697 477.86C700.697 479.32 701.88 480.503 703.34 480.503Z" fill="#F7AAB0"/>
<path id="Vector_28" d="M685.014 476.267C685.014 476.267 716.3 483.839 709.092 494.636C701.884 505.433 673.424 485.699 673.424 485.699L685.014 476.267Z" fill="#FAD2B8"/>
<path id="Vector_29" d="M692.556 408.838H700.817C700.817 408.838 709.995 418.938 708.159 428.112C706.323 437.286 700.817 480.426 700.817 480.426C700.817 480.426 673.283 506.126 659.517 492.357C645.751 478.588 655.846 465.741 655.846 465.741C655.846 465.741 674.202 480.426 684.298 461.152L692.556 408.838Z" fill="white"/>
<path id="Vector_30" d="M684.348 471.416L690.669 408.961C690.669 408.961 703.928 369.533 690.985 368.567C678.042 367.601 677.132 405.929 677.132 405.929L654.59 474.267C654.59 474.267 666.961 486.384 684.348 471.416Z" fill="#FAD2B8"/>
</g>
<g id="bubbles">
<path id="Vector_31" opacity="0.26" d="M705.779 213.691C720.907 213.691 733.171 201.427 733.171 186.299C733.171 171.171 720.907 158.907 705.779 158.907C690.651 158.907 678.387 171.171 678.387 186.299C678.387 201.427 690.651 213.691 705.779 213.691Z" fill="#F7AAB0"/>
<path id="Vector_32" opacity="0.2" d="M200.279 452.691C211.265 452.691 220.171 443.785 220.171 432.799C220.171 421.813 211.265 412.907 200.279 412.907C189.293 412.907 180.387 421.813 180.387 432.799C180.387 443.785 189.293 452.691 200.279 452.691Z" fill="#F7AAB0"/>
<path id="Vector_33" opacity="0.26" d="M566.07 240.016C573.477 240.016 579.482 234.011 579.482 226.604C579.482 219.197 573.477 213.192 566.07 213.192C558.663 213.192 552.658 219.197 552.658 226.604C552.658 234.011 558.663 240.016 566.07 240.016Z" fill="#F7AAB0"/>
<path id="Vector_34" opacity="0.27" d="M291.07 318.016C298.477 318.016 304.482 312.011 304.482 304.604C304.482 297.197 298.477 291.192 291.07 291.192C283.663 291.192 277.658 297.197 277.658 304.604C277.658 312.011 283.663 318.016 291.07 318.016Z" fill="#F7AAB0"/>
<path id="Vector_35" opacity="0.3" d="M407.779 270.691C423.459 270.691 436.171 257.979 436.171 242.299C436.171 226.619 423.459 213.907 407.779 213.907C392.098 213.907 379.387 226.619 379.387 242.299C379.387 257.979 392.098 270.691 407.779 270.691Z" fill="#F7AAB0"/>
</g>
</g>
<defs>
<linearGradient id="paint0_linear" x1="585.093" y1="-0.00537109" x2="585.093" y2="1102.71" gradientUnits="userSpaceOnUse">
<stop stop-color="#725E97"/>
<stop offset="1" stop-color="white"/>
</linearGradient>
<linearGradient id="paint1_linear" x1="592.095" y1="93.5627" x2="592.095" y2="939.496" gradientUnits="userSpaceOnUse">
<stop stop-color="#725E97"/>
<stop offset="1" stop-color="#F7AAB0" stop-opacity="0.749"/>
</linearGradient>
<linearGradient id="paint2_linear" x1="625.144" y1="201.876" x2="625.144" y2="901.176" gradientUnits="userSpaceOnUse">
<stop stop-color="#725E97"/>
<stop offset="1" stop-color="#F7AAB0" stop-opacity="0.89"/>
</linearGradient>
<clipPath id="clip0">
<rect width="1170.19" height="1102.71" fill="white"/>
</clipPath>
</defs>
</svg>
