<svg xmlns="http://www.w3.org/2000/svg" xmlns:xlink="http://www.w3.org/1999/xlink" width="295" height="295" viewBox="0 0 295 295"><defs><linearGradient id="a" x1="0.226" y1="0.112" x2="0.775" y2="1" gradientUnits="objectBoundingBox"><stop offset="0" stop-color="#f6cbc9" stop-opacity="0.859"/><stop offset="1" stop-color="#fff" stop-opacity="0.49"/></linearGradient></defs><g transform="translate(-1023 -1923)"><g transform="translate(632 423)"><path d="M147.5,0A147.5,147.5,0,1,1,0,147.5,147.5,147.5,0,0,1,147.5,0Z" transform="translate(391 1500)" opacity="0.33" fill="url(#a)"/><path d="M122,0A122,122,0,1,1,0,122,122,122,0,0,1,122,0Z" transform="translate(416 1525)" opacity="0.6" fill="url(#a)"/></g><path d="M110.1,1.958a3.136,3.136,0,0,0-5.7-.242A34.568,34.568,0,0,1,74.174,19.355H58.048a38.713,38.713,0,0,0-38.7,38.7,39.858,39.858,0,0,0,.3,4.132C32.508,52.978,51.073,45.157,77.4,45.157a3.225,3.225,0,0,1,0,6.451C26.722,51.608,5.234,82.671.477,94.343a6.459,6.459,0,0,0,11.954,4.9c.3-.726,4.213-9.656,14.494-18.263A38.618,38.618,0,0,0,62.18,96.54c31.648-2.3,53.923-30.68,53.923-65.433A73.3,73.3,0,0,0,110.1,1.958Z" transform="translate(1111.996 2019.002)" fill="#4e4e4e"/></g></svg>