<svg width="263" height="66" viewBox="0 0 263 66" fill="none" xmlns="http://www.w3.org/2000/svg">
<path d="M56.7817 9.81353V64.1299H51.334V20.6768L30.2336 57.2239H27.5481L6.44774 20.9096V64.1299H1V9.81353H5.68045L29.006 50.0852L52.1013 9.81353H56.7817Z" fill="#2F2E41"/>
<path d="M109.5 23.315V64.1299H104.283V56.6808C102.851 59.1638 100.881 61.1037 98.3747 62.5004C95.8682 63.8454 93.0037 64.5179 89.7811 64.5179C84.5124 64.5179 80.3434 63.0436 77.2743 60.095C74.2563 57.0946 72.7473 52.7234 72.7473 46.9814V23.315H78.195V46.4383C78.195 50.7318 79.2437 53.9908 81.3409 56.2152C83.4382 58.4396 86.4306 59.5518 90.3182 59.5518C94.5638 59.5518 97.9143 58.2585 100.37 55.6721C102.825 53.0338 104.053 49.3869 104.053 44.7312V23.315H109.5Z" fill="#2F2E41"/>
<path d="M135.577 64.5179C132.303 64.5179 129.157 64.0523 126.139 63.1212C123.172 62.1383 120.845 60.9226 119.157 59.4742L121.612 55.1289C123.3 56.4739 125.423 57.5861 127.981 58.4655C130.538 59.2931 133.198 59.707 135.96 59.707C139.643 59.707 142.354 59.138 144.094 57.9999C145.884 56.8101 146.779 55.1547 146.779 53.0338C146.779 51.5337 146.293 50.3697 145.321 49.5421C144.349 48.6627 143.122 48.016 141.638 47.6022C140.155 47.1366 138.185 46.6969 135.73 46.2831C132.456 45.6623 129.822 45.0416 127.827 44.4208C125.832 43.7483 124.119 42.6361 122.686 41.0842C121.305 39.5323 120.615 37.3855 120.615 34.6439C120.615 31.2297 122.021 28.4363 124.835 26.2636C127.648 24.091 131.561 23.0046 136.574 23.0046C139.183 23.0046 141.792 23.3668 144.401 24.091C147.009 24.7635 149.158 25.6687 150.846 26.8068L148.467 31.2297C145.142 28.9018 141.178 27.7379 136.574 27.7379C133.096 27.7379 130.461 28.3587 128.671 29.6002C126.932 30.8417 126.062 32.4712 126.062 34.4887C126.062 36.0406 126.548 37.2821 127.52 38.2132C128.543 39.1444 129.796 39.8427 131.28 40.3083C132.763 40.7221 134.809 41.1618 137.418 41.6274C140.641 42.2481 143.224 42.8689 145.168 43.4897C147.112 44.1104 148.774 45.1709 150.155 46.6711C151.536 48.1712 152.227 50.2404 152.227 52.8786C152.227 56.448 150.743 59.2931 147.777 61.4141C144.861 63.4833 140.794 64.5179 135.577 64.5179Z" fill="#2F2E41"/>
<path d="M199.106 64.5179C195.116 64.5179 191.536 63.6384 188.364 61.8796C185.244 60.1208 182.789 57.6637 180.998 54.5081C179.208 51.3009 178.313 47.7057 178.313 43.7225C178.313 39.7393 179.208 36.1699 180.998 33.0144C182.789 29.8588 185.244 27.4017 188.364 25.6429C191.536 23.884 195.116 23.0046 199.106 23.0046C202.585 23.0046 205.679 23.703 208.39 25.0997C211.153 26.4447 213.327 28.4363 214.912 31.0745L210.846 33.8679C209.516 31.8504 207.828 30.3503 205.782 29.3674C203.736 28.3328 201.51 27.8155 199.106 27.8155C196.191 27.8155 193.556 28.488 191.203 29.833C188.901 31.1262 187.085 32.9885 185.755 35.4198C184.477 37.8511 183.837 40.6187 183.837 43.7225C183.837 46.878 184.477 49.6714 185.755 52.1027C187.085 54.4823 188.901 56.3445 191.203 57.6895C193.556 58.9828 196.191 59.6294 199.106 59.6294C201.51 59.6294 203.736 59.138 205.782 58.1551C207.828 57.1722 209.516 55.672 210.846 53.6546L214.912 56.448C213.327 59.0862 211.153 61.1037 208.39 62.5004C205.628 63.8454 202.533 64.5179 199.106 64.5179Z" fill="#2F2E41"/>
<path d="M241.436 64.5179C237.549 64.5179 234.045 63.6384 230.925 61.8796C227.804 60.0691 225.349 57.5861 223.559 54.4305C221.768 51.275 220.873 47.7057 220.873 43.7225C220.873 39.7393 221.768 36.1699 223.559 33.0144C225.349 29.8588 227.804 27.4017 230.925 25.6429C234.045 23.884 237.549 23.0046 241.436 23.0046C245.324 23.0046 248.828 23.884 251.948 25.6429C255.069 27.4017 257.498 29.8588 259.238 33.0144C261.028 36.1699 261.923 39.7393 261.923 43.7225C261.923 47.7057 261.028 51.275 259.238 54.4305C257.498 57.5861 255.069 60.0691 251.948 61.8796C248.828 63.6384 245.324 64.5179 241.436 64.5179ZM241.436 59.6294C244.301 59.6294 246.859 58.9828 249.109 57.6895C251.411 56.3445 253.202 54.4564 254.48 52.0251C255.759 49.5938 256.399 46.8262 256.399 43.7225C256.399 40.6187 255.759 37.8511 254.48 35.4198C253.202 32.9885 251.411 31.1262 249.109 29.833C246.859 28.488 244.301 27.8155 241.436 27.8155C238.572 27.8155 235.989 28.488 233.687 29.833C231.436 31.1262 229.646 32.9885 228.316 35.4198C227.037 37.8511 226.398 40.6187 226.398 43.7225C226.398 46.8262 227.037 49.5938 228.316 52.0251C229.646 54.4564 231.436 56.3445 233.687 57.6895C235.989 58.9828 238.572 59.6294 241.436 59.6294Z" fill="#2F2E41"/>
<path d="M173.244 11.1278C172.839 8.50263 171.582 6.0882 169.671 4.26476C167.76 2.44131 165.304 1.31245 162.689 1.05594C160.074 0.799435 157.449 1.42986 155.227 2.84793C153.005 4.26601 151.313 6.39116 150.417 8.88874C149.521 11.3863 149.472 14.1144 150.277 16.6434C151.083 19.1724 152.697 21.3585 154.866 22.8577C157.035 24.3568 159.636 25.0837 162.258 24.9239C164.881 24.764 167.376 23.7266 169.352 21.9749L169.358 65L173.192 64.9991L173.188 15.3697L173.145 15.3695C173.429 13.9731 173.463 12.5363 173.244 11.1278Z" fill="#2F2E41"/>
<path d="M56.7817 9.81353V64.1299H51.334V20.6768L30.2336 57.2239H27.5481L6.44774 20.9096V64.1299H1V9.81353H5.68045L29.006 50.0852L52.1013 9.81353H56.7817Z" stroke="#ECECEC"/>
<path d="M109.5 23.315V64.1299H104.283V56.6808C102.851 59.1638 100.881 61.1037 98.3747 62.5004C95.8682 63.8454 93.0037 64.5179 89.7811 64.5179C84.5124 64.5179 80.3434 63.0436 77.2743 60.095C74.2563 57.0946 72.7473 52.7234 72.7473 46.9814V23.315H78.195V46.4383C78.195 50.7318 79.2437 53.9908 81.3409 56.2152C83.4382 58.4396 86.4306 59.5518 90.3182 59.5518C94.5638 59.5518 97.9143 58.2585 100.37 55.6721C102.825 53.0338 104.053 49.3869 104.053 44.7312V23.315H109.5Z" stroke="#ECECEC"/>
<path d="M135.577 64.5179C132.303 64.5179 129.157 64.0523 126.139 63.1212C123.172 62.1383 120.845 60.9226 119.157 59.4742L121.612 55.1289C123.3 56.4739 125.423 57.5861 127.981 58.4655C130.538 59.2931 133.198 59.707 135.96 59.707C139.643 59.707 142.354 59.138 144.094 57.9999C145.884 56.8101 146.779 55.1547 146.779 53.0338C146.779 51.5337 146.293 50.3697 145.321 49.5421C144.349 48.6627 143.122 48.016 141.638 47.6022C140.155 47.1366 138.185 46.6969 135.73 46.2831C132.456 45.6623 129.822 45.0416 127.827 44.4208C125.832 43.7483 124.119 42.6361 122.686 41.0842C121.305 39.5323 120.615 37.3855 120.615 34.6439C120.615 31.2297 122.021 28.4363 124.835 26.2636C127.648 24.091 131.561 23.0046 136.574 23.0046C139.183 23.0046 141.792 23.3668 144.401 24.091C147.009 24.7635 149.158 25.6687 150.846 26.8068L148.467 31.2297C145.142 28.9018 141.178 27.7379 136.574 27.7379C133.096 27.7379 130.461 28.3587 128.671 29.6002C126.932 30.8417 126.062 32.4712 126.062 34.4887C126.062 36.0406 126.548 37.2821 127.52 38.2132C128.543 39.1444 129.796 39.8427 131.28 40.3083C132.763 40.7221 134.809 41.1618 137.418 41.6274C140.641 42.2481 143.224 42.8689 145.168 43.4897C147.112 44.1104 148.774 45.1709 150.155 46.6711C151.536 48.1712 152.227 50.2404 152.227 52.8786C152.227 56.448 150.743 59.2931 147.777 61.4141C144.861 63.4833 140.794 64.5179 135.577 64.5179Z" stroke="#ECECEC"/>
<path d="M199.106 64.5179C195.116 64.5179 191.536 63.6384 188.364 61.8796C185.244 60.1208 182.789 57.6637 180.998 54.5081C179.208 51.3009 178.313 47.7057 178.313 43.7225C178.313 39.7393 179.208 36.1699 180.998 33.0144C182.789 29.8588 185.244 27.4017 188.364 25.6429C191.536 23.884 195.116 23.0046 199.106 23.0046C202.585 23.0046 205.679 23.703 208.39 25.0997C211.153 26.4447 213.327 28.4363 214.912 31.0745L210.846 33.8679C209.516 31.8504 207.828 30.3503 205.782 29.3674C203.736 28.3328 201.51 27.8155 199.106 27.8155C196.191 27.8155 193.556 28.488 191.203 29.833C188.901 31.1262 187.085 32.9885 185.755 35.4198C184.477 37.8511 183.837 40.6187 183.837 43.7225C183.837 46.878 184.477 49.6714 185.755 52.1027C187.085 54.4823 188.901 56.3445 191.203 57.6895C193.556 58.9828 196.191 59.6294 199.106 59.6294C201.51 59.6294 203.736 59.138 205.782 58.1551C207.828 57.1722 209.516 55.672 210.846 53.6546L214.912 56.448C213.327 59.0862 211.153 61.1037 208.39 62.5004C205.628 63.8454 202.533 64.5179 199.106 64.5179Z" stroke="#ECECEC"/>
<path d="M241.436 64.5179C237.549 64.5179 234.045 63.6384 230.925 61.8796C227.804 60.0691 225.349 57.5861 223.559 54.4305C221.768 51.275 220.873 47.7057 220.873 43.7225C220.873 39.7393 221.768 36.1699 223.559 33.0144C225.349 29.8588 227.804 27.4017 230.925 25.6429C234.045 23.884 237.549 23.0046 241.436 23.0046C245.324 23.0046 248.828 23.884 251.948 25.6429C255.069 27.4017 257.498 29.8588 259.238 33.0144C261.028 36.1699 261.923 39.7393 261.923 43.7225C261.923 47.7057 261.028 51.275 259.238 54.4305C257.498 57.5861 255.069 60.0691 251.948 61.8796C248.828 63.6384 245.324 64.5179 241.436 64.5179ZM241.436 59.6294C244.301 59.6294 246.859 58.9828 249.109 57.6895C251.411 56.3445 253.202 54.4564 254.48 52.0251C255.759 49.5938 256.399 46.8262 256.399 43.7225C256.399 40.6187 255.759 37.8511 254.48 35.4198C253.202 32.9885 251.411 31.1262 249.109 29.833C246.859 28.488 244.301 27.8155 241.436 27.8155C238.572 27.8155 235.989 28.488 233.687 29.833C231.436 31.1262 229.646 32.9885 228.316 35.4198C227.037 37.8511 226.398 40.6187 226.398 43.7225C226.398 46.8262 227.037 49.5938 228.316 52.0251C229.646 54.4564 231.436 56.3445 233.687 57.6895C235.989 58.9828 238.572 59.6294 241.436 59.6294Z" stroke="#ECECEC"/>
<path d="M173.244 11.1278C172.839 8.50263 171.582 6.0882 169.671 4.26476C167.76 2.44131 165.304 1.31245 162.689 1.05594C160.074 0.799435 157.449 1.42986 155.227 2.84793C153.005 4.26601 151.313 6.39116 150.417 8.88874C149.521 11.3863 149.472 14.1144 150.277 16.6434C151.083 19.1724 152.697 21.3585 154.866 22.8577C157.035 24.3568 159.636 25.0837 162.258 24.9239C164.881 24.764 167.376 23.7266 169.352 21.9749L169.358 65L173.192 64.9991L173.188 15.3697L173.145 15.3695C173.429 13.9731 173.463 12.5363 173.244 11.1278Z" stroke="#ECECEC"/>
</svg>
