<svg width="239" height="82" viewBox="0 0 239 82" fill="none" xmlns="http://www.w3.org/2000/svg">
<path d="M56.347 18.1V65H51.59V27.48L33.165 59.037H30.82L12.395 27.681V65H7.638V18.1H11.725L32.093 52.873L52.26 18.1H56.347ZM102.381 29.758V65H97.8252V58.568C96.5746 60.712 94.8549 62.387 92.6662 63.593C90.4776 64.7543 87.9762 65.335 85.1622 65.335C80.5616 65.335 76.9212 64.062 74.2412 61.516C71.6059 58.9253 70.2882 55.151 70.2882 50.193V29.758H75.0452V49.724C75.0452 53.4313 75.9609 56.2453 77.7922 58.166C79.6236 60.0867 82.2366 61.047 85.6312 61.047C89.3386 61.047 92.2642 59.9303 94.4082 57.697C96.5522 55.419 97.6242 52.27 97.6242 48.25V29.758H102.381ZM125.151 65.335C122.293 65.335 119.546 64.933 116.91 64.129C114.32 63.2803 112.287 62.2307 110.813 60.98L112.957 57.228C114.431 58.3893 116.285 59.3497 118.518 60.109C120.752 60.8237 123.074 61.181 125.486 61.181C128.702 61.181 131.07 60.6897 132.588 59.707C134.152 58.6797 134.933 57.2503 134.933 55.419C134.933 54.1237 134.509 53.1187 133.66 52.404C132.812 51.6447 131.74 51.0863 130.444 50.729C129.149 50.327 127.429 49.9473 125.285 49.59C122.427 49.054 120.126 48.518 118.384 47.982C116.642 47.4013 115.146 46.441 113.895 45.101C112.689 43.761 112.086 41.9073 112.086 39.54C112.086 36.592 113.315 34.18 115.771 32.304C118.228 30.428 121.645 29.49 126.022 29.49C128.3 29.49 130.578 29.8027 132.856 30.428C135.134 31.0087 137.01 31.7903 138.484 32.773L136.407 36.592C133.504 34.582 130.042 33.577 126.022 33.577C122.985 33.577 120.685 34.113 119.121 35.185C117.603 36.257 116.843 37.664 116.843 39.406C116.843 40.746 117.268 41.818 118.116 42.622C119.01 43.426 120.104 44.029 121.399 44.431C122.695 44.7883 124.481 45.168 126.759 45.57C129.573 46.106 131.829 46.642 133.526 47.178C135.224 47.714 136.675 48.6297 137.881 49.925C139.087 51.2203 139.69 53.007 139.69 55.285C139.69 58.367 138.395 60.8237 135.804 62.655C133.258 64.4417 129.707 65.335 125.151 65.335ZM180.626 65.335C177.142 65.335 174.015 64.5757 171.246 63.057C168.521 61.5383 166.377 59.4167 164.814 56.692C163.25 53.9227 162.469 50.8183 162.469 47.379C162.469 43.9397 163.25 40.8577 164.814 38.133C166.377 35.4083 168.521 33.2867 171.246 31.768C174.015 30.2493 177.142 29.49 180.626 29.49C183.663 29.49 186.365 30.093 188.733 31.299C191.145 32.4603 193.043 34.18 194.428 36.458L190.877 38.87C189.715 37.128 188.241 35.8327 186.455 34.984C184.668 34.0907 182.725 33.644 180.626 33.644C178.08 33.644 175.779 34.2247 173.725 35.386C171.715 36.5027 170.129 38.1107 168.968 40.21C167.851 42.3093 167.293 44.699 167.293 47.379C167.293 50.1037 167.851 52.5157 168.968 54.615C170.129 56.6697 171.715 58.2777 173.725 59.439C175.779 60.5557 178.08 61.114 180.626 61.114C182.725 61.114 184.668 60.6897 186.455 59.841C188.241 58.9923 189.715 57.697 190.877 55.955L194.428 58.367C193.043 60.645 191.145 62.387 188.733 63.593C186.321 64.7543 183.618 65.335 180.626 65.335ZM217.589 65.335C214.194 65.335 211.134 64.5757 208.41 63.057C205.685 61.4937 203.541 59.3497 201.978 56.625C200.414 53.9003 199.633 50.8183 199.633 47.379C199.633 43.9397 200.414 40.8577 201.978 38.133C203.541 35.4083 205.685 33.2867 208.41 31.768C211.134 30.2493 214.194 29.49 217.589 29.49C220.983 29.49 224.043 30.2493 226.768 31.768C229.492 33.2867 231.614 35.4083 233.133 38.133C234.696 40.8577 235.478 43.9397 235.478 47.379C235.478 50.8183 234.696 53.9003 233.133 56.625C231.614 59.3497 229.492 61.4937 226.768 63.057C224.043 64.5757 220.983 65.335 217.589 65.335ZM217.589 61.114C220.09 61.114 222.323 60.5557 224.289 59.439C226.299 58.2777 227.862 56.6473 228.979 54.548C230.095 52.4487 230.654 50.059 230.654 47.379C230.654 44.699 230.095 42.3093 228.979 40.21C227.862 38.1107 226.299 36.5027 224.289 35.386C222.323 34.2247 220.09 33.644 217.589 33.644C215.087 33.644 212.832 34.2247 210.822 35.386C208.856 36.5027 207.293 38.1107 206.132 40.21C205.015 42.3093 204.457 44.699 204.457 47.379C204.457 50.059 205.015 52.4487 206.132 54.548C207.293 56.6473 208.856 58.2777 210.822 59.439C212.832 60.5557 215.087 61.114 217.589 61.114Z" fill="#4E4E4E" fill-opacity="0.87"/>
<path d="M158.042 19.2348C157.689 16.9681 156.591 14.8833 154.923 13.3089C153.254 11.7344 151.109 10.7597 148.826 10.5382C146.543 10.3167 144.25 10.861 142.31 12.0855C140.37 13.3099 138.893 15.1449 138.11 17.3015C137.327 19.458 137.284 21.8136 137.988 23.9973C138.691 26.181 140.101 28.0687 141.995 29.3631C143.889 30.6575 146.16 31.2852 148.45 31.1472C150.74 31.0092 152.919 30.1134 154.644 28.6008L154.649 65.7513L157.998 65.7505L157.994 22.8975L157.956 22.8974C158.204 21.6916 158.234 20.451 158.042 19.2348V19.2348Z" fill="#F7AAB0" stroke="#F7AAB0"/>
</svg>
