<svg xmlns="http://www.w3.org/2000/svg" width="471.114" height="356.429" viewBox="0 0 471.114 356.429"><g transform="translate(0 0)"><path d="M872.584,759.074H684.762a.657.657,0,0,1,0-1.314H872.584a.657.657,0,1,1,0,1.314Z" transform="translate(-402.127 -409.681)" fill="#3f3d56"/><circle cx="18.214" cy="18.214" r="18.214" transform="translate(363.595 233.275)" fill="#2f2e41"/><circle cx="13.556" cy="13.556" r="13.556" transform="translate(368.622 244.199)" fill="#a0616a"/><path d="M869.822,628.4s-24.837-4.415-40.844,1.1l4.692,37.256-1.1,6.071,33.116-1.1-2.208-6.071Z" transform="translate(-467.039 -350.971)" fill="#a0616a"/><path d="M854.429,668.168a166.973,166.973,0,0,1-17.109-1.084,4.687,4.687,0,0,1-4.174-4.772l.4-17.423.047-.068c4.8-6.951,2.461-12.028.663-14.761a3.531,3.531,0,0,1-.581-1.944h0c-.276-.384-.338.224-.167-.209a1.385,1.385,0,0,1,1.013-.849l2.74-.548a1.379,1.379,0,0,1,1.578.911c.921,2.747,4.509,11.586,12.731,11.584,6.869,0,9.432-9.72,9.585-11.966a1.381,1.381,0,0,1,1.376-1.282h3.422a1.444,1.444,0,0,1,1.141.516,1.369,1.369,0,0,1,.135,1.519c-3.906,7.181,1.8,18.543,1.86,18.656l.037.072-1.61,16.72a4.714,4.714,0,0,1-3.629,4.127A44.17,44.17,0,0,1,854.429,668.168Z" transform="translate(-468.906 -350.536)" fill="#fff"/><path d="M801.476,742.856a29.849,29.849,0,0,1-9.8-1.374c-3.207-1.148-5.22-3-5.985-5.517a7.286,7.286,0,0,1,.887-6.443c4.744-7.1,21.206-9.105,23.415-9.344l1.17-9.751a4.709,4.709,0,0,1,4.585-4.132l27.725-.433a4.648,4.648,0,0,1,4.689,3.851l1.576,8.666-18.18,8.814,2.749,7.7-.179.12C828.8,738.559,813.5,742.856,801.476,742.856Z" transform="translate(-447.471 -386.428)" fill="#2f2e41"/><path d="M875.971,725.959s25.389-3.312,23.733,9.935-20.974,22.63-50.227,0l3.312-6.623s16.558,4.416,23.181,1.1Z" transform="translate(-476.224 -395.268)" fill="#2f2e41"/><path d="M838.484,730.3s0-6.623-5.519-6.071-15.454,1.1-15.454,1.1-3.312,2.208,1.1,3.312,17.662,6.623,17.662,6.623Z" transform="translate(-461.367 -394.644)" fill="#a0616a"/><path d="M873.478,728.3s0-6.623,5.519-6.071,15.454,1.1,15.454,1.1,3.312,2.208-1.1,3.312-17.662,6.623-17.662,6.623Z" transform="translate(-486.978 -393.747)" fill="#a0616a"/><path d="M916.857,685.373l-8.236-28.55s-1.656-9.935-3.312-19.318-7.727-8.279-7.727-8.279l-1.1.552v14.9l1.1,13.8,11.02,30.3a5.8,5.8,0,1,0,8.255-3.409Z" transform="translate(-497.283 -352.072)" fill="#a0616a"/><path d="M814.335,631.225s-6.071-1.1-7.727,8.279-3.312,19.318-3.312,19.318l-8.236,28.55a5.793,5.793,0,1,0,8.255,3.41l11.02-30.3,1.1-13.8V633.012a2,2,0,0,0-1.1-1.786Z" transform="translate(-450.464 -352.968)" fill="#a0616a"/><path d="M841.335,572.758a40.315,40.315,0,0,0,17.441,5.747l-1.838-2.2a13.51,13.51,0,0,0,4.173.829,4.571,4.571,0,0,0,3.725-1.744,4.251,4.251,0,0,0,.285-3.927,8.052,8.052,0,0,0-2.533-3.167,15.081,15.081,0,0,0-14.036-2.509,9.014,9.014,0,0,0-4.192,2.689,5.1,5.1,0,0,0-1.028,4.725" transform="translate(-472.576 -323.33)" fill="#2f2e41"/><path d="M828.133,544.068a41.662,41.662,0,0,0-15.158-9.8c-3.664-1.357-7.652-2.2-11.483-1.425s-7.453,3.421-8.522,7.18c-.874,3.073.028,6.383,1.385,9.276s3.167,5.576,4.264,8.577a19.576,19.576,0,0,1-19.7,26.252c3.764.5,7.233,2.273,10.912,3.215s8.021.878,10.755-1.758c2.893-2.789,2.951-7.323,2.811-11.338l-.624-17.908c-.106-3.044-.2-6.186.9-9.027s3.707-5.329,6.753-5.3c2.308.02,4.352,1.418,6.2,2.8s3.811,2.851,6.11,3.056,4.925-1.5,4.753-3.8" transform="translate(-444.61 -308.772)" fill="#2f2e41"/><path d="M435.666,463.243H192.813a19.616,19.616,0,0,1-19.594-19.594V146.706a19.616,19.616,0,0,1,19.594-19.594H435.666a19.616,19.616,0,0,1,19.594,19.594V443.649A19.616,19.616,0,0,1,435.666,463.243Z" transform="translate(-173.219 -127.112)" fill="#e6e6e6"/><path d="M442.829,475.088h-228.5a9.117,9.117,0,0,1-9.107-9.107V192.219a9.117,9.117,0,0,1,9.107-9.107h228.5a9.117,9.117,0,0,1,9.107,9.107V465.981a9.117,9.117,0,0,1-9.107,9.107Z" transform="translate(-187.557 -152.204)" fill="#fff"/><path d="M421.294,332.76c-3.712-8.887-9.478-16.3-17.847-21.213-8.793-5.162-18.831-9.461-28.943-11.012a75.5,75.5,0,0,0-30.337,1.7c-4.769,1.235-10.026,2.67-14.048,5.627-3.845,2.827-6.479,7.477-8.623,11.655-2.054,4-3.335,8.41-2.223,12.893,1.025,4.131,3.89,7.572,7.167,10.16,2.927,2.313,7.021,5.374,10.937,3.941a3.052,3.052,0,0,0,.632-.319c6.762,2.057,13.485-.935,20.426-3.277,4.219-1.424,8.46-2.144,12.7-.367,4.174,1.751,7.572,5.191,10.062,8.9,2.369,3.527,3.928,7.531,6.528,10.912a15.506,15.506,0,0,0,10.96,6.189c8.387.938,19.519.074,24.351-7.867C428.182,352.217,424.813,341.183,421.294,332.76Zm-85.615-13,3.732.423a13.8,13.8,0,0,0-6.432,3.016,16.389,16.389,0,0,0-1.944,1.943c.017-.057.027-.111.045-.168a8.679,8.679,0,0,1,4.6-5.213Zm41.764,7.944a2.134,2.134,0,0,0,.938.4l.119.021q.347.2.7.395c-.026.037-.046.077-.071.114-.569-.059-1.138-.115-1.707-.172a2.992,2.992,0,0,0,.025-.757Zm15.055,17.8a2.492,2.492,0,0,0-.33.437L392,345.7a1.648,1.648,0,0,1,.5-.194Zm9.723,10.523,1.691.222a2.136,2.136,0,0,0-.229.586c-.4.013-.8.02-1.206.021Zm8.166-4.8.68-.117a2.477,2.477,0,0,0,.995-.4c0,.04,0,.08.006.12,0,.136.018.305.035.5-.056.1-.112.194-.171.29l-1.545-.4Zm-29-29.988a3.247,3.247,0,0,0-.906-.533,39.158,39.158,0,0,0-4.9-1.531q-.374-.351-.73-.721a39.4,39.4,0,0,1,4.159,1.059,48.433,48.433,0,0,1,5.147,1.98q-1.389-.155-2.776-.253Zm15.62,1.047q-1.222-.764-2.461-1.5,1.269.715,2.5,1.5Zm16.842,7.687a58.766,58.766,0,0,0-7.224-7.4,3.6,3.6,0,0,0,.3-1.474,37.125,37.125,0,0,1,6.925,8.873ZM382.441,308.1c-.345-.08-.691-.16-1.036-.238-3.284-.741-6.629-1.54-10-2.217.181.021.362.039.543.062A58.277,58.277,0,0,1,382.441,308.1Z" transform="translate(-238.476 -204.453)" fill="#725e97"/><circle cx="6.623" cy="6.623" r="6.623" transform="translate(134.397 8.003)" fill="#fff"/><path d="M298.986,625.525h-.008a1.027,1.027,0,0,0-.664.247l-6.424,5.945v-5.8a.394.394,0,0,0-.394-.394h-1.591a.394.394,0,0,0-.394.394v13.9a.394.394,0,0,0,.394.394h1.583a.394.394,0,0,0,.394-.394v-5.76l6.424,5.915a1.02,1.02,0,0,0,.664.239,1.042,1.042,0,0,0,1.058-1.027v-12.6A1.05,1.05,0,0,0,298.986,625.525Z" transform="translate(-225.326 -350.432)" fill="#f7aab0"/><path d="M561.741,625.564h-1.552a.394.394,0,0,0-.394.394v5.768l-6.424-5.914a1.034,1.034,0,0,0-.672-.247v-.039a1.05,1.05,0,0,0-1.058,1.042c0,.005,0,.01,0,.016V639.2a1.05,1.05,0,0,0,1.05,1.05h.008a1.027,1.027,0,0,0,.672-.239l6.424-5.953v5.8a.394.394,0,0,0,.394.394h1.544a.394.394,0,0,0,.4-.386V625.957A.394.394,0,0,0,561.741,625.564Z" transform="translate(-342.776 -350.432)" fill="#f7aab0"/><rect width="6.231" height="14.624" rx="2.798" transform="translate(134.457 275.402)" fill="#f7aab0"/><path d="M436.786,626.085h-3.166a1.544,1.544,0,0,0-1.544,1.544v11.535a1.544,1.544,0,0,0,1.544,1.544h3.166a1.544,1.544,0,0,0,1.544-1.544V627.629a1.544,1.544,0,0,0-1.544-1.544Z" transform="translate(-289.203 -350.683)" fill="#f7aab0"/><path d="M446.211,594.337H262.965a1.417,1.417,0,0,1,0-2.834H446.211a1.417,1.417,0,1,1,0,2.834Z" transform="translate(-212.796 -335.188)" fill="#f7aab0"/><path d="M359.128,594.912a4.509,4.509,0,1,1,4.5-4.517v.008A4.509,4.509,0,0,1,359.128,594.912Z" transform="translate(-254.494 -332.674)" fill="#ccc"/><path d="M314.838,594.478H260.915a2.165,2.165,0,1,1,0-4.33h53.922a1.136,1.136,0,0,1,1.134,1.135v2.061a1.136,1.136,0,0,1-1.134,1.135Z" transform="translate(-211.542 -334.58)" fill="#ccc"/><path d="M428.635,458.769c-3.125-.087-7.015-.2-10.01-2.384a7.688,7.688,0,0,1-3.025-5.74,5.171,5.171,0,0,1,1.758-4.247,6.672,6.672,0,0,1,6.313-.909l-2.551-18.646,1.873-.257,3,21.921-1.564-.718c-1.813-.832-4.3-1.254-5.849.052a3.321,3.321,0,0,0-1.089,2.736,5.811,5.811,0,0,0,2.251,4.28c2.331,1.7,5.431,1.923,8.948,2.022Z" transform="translate(-281.815 -261.295)" fill="#3f3d56"/><rect width="10.182" height="1.89" transform="translate(119.86 167.156)" fill="#3f3d56"/><rect width="10.182" height="1.89" transform="translate(151.998 167.156)" fill="#3f3d56"/><path d="M343.59,340.53c-8.2-.935-14.549-8.791-15.247-16.762-.83-9.483,4.693-18.489,12.269-23.811,7.923-5.565,17.795-7.889,27.346-8.4a75.155,75.155,0,0,1,51.372,16.933c7.157,5.944,13.841,13.516,16.374,22.662,2.2,7.943.41,16.941-5.978,22.5a15.1,15.1,0,0,1-11.589,3.568c-4.957-.515-9.53-3.121-13.489-6-7.7-5.6-14.023-13.4-23.4-16.325-6.879-2.145-15.806-.257-20.01,5.964a11.323,11.323,0,0,0-1.808,4.744,1.468,1.468,0,0,0,.99,1.744,1.427,1.427,0,0,0,1.744-.99c1.1-7.835,10.738-10.759,17.5-8.97,9.858,2.609,16.475,11.405,24.562,16.994,4.252,2.938,9.089,5.288,14.3,5.709a17.762,17.762,0,0,0,12.48-3.834c6.909-5.456,9.552-14.84,8.024-23.288-1.769-9.784-8.354-18.169-15.579-24.661a77.932,77.932,0,0,0-53.259-19.675c-9.995.23-20.423,2.293-29.033,7.575-8.352,5.124-14.807,13.7-15.651,23.661-.743,8.771,3.963,17.945,12.041,21.787a18.856,18.856,0,0,0,6.042,1.706c1.81.206,1.8-2.631,0-2.836Z" transform="translate(-241.419 -199.479)" fill="#3f3d56"/></g></svg>