<svg xmlns="http://www.w3.org/2000/svg" xmlns:xlink="http://www.w3.org/1999/xlink" width="295" height="295" viewBox="0 0 295 295"><defs><linearGradient id="a" x1="0.226" y1="0.112" x2="0.775" y2="1" gradientUnits="objectBoundingBox"><stop offset="0" stop-color="#f6cbc9" stop-opacity="0.859"/><stop offset="1" stop-color="#fff" stop-opacity="0.49"/></linearGradient></defs><g transform="translate(-573 -1923)"><g transform="translate(182 423)"><path d="M147.5,0A147.5,147.5,0,1,1,0,147.5,147.5,147.5,0,0,1,147.5,0Z" transform="translate(391 1500)" opacity="0.33" fill="url(#a)"/><path d="M122,0A122,122,0,1,1,0,122,122,122,0,0,1,122,0Z" transform="translate(416 1525)" opacity="0.6" fill="url(#a)"/></g><path d="M39.922,79.844A21.775,21.775,0,0,0,61.7,58.068V21.776a21.776,21.776,0,0,0-43.551,0V58.068A21.775,21.775,0,0,0,39.922,79.844ZM76.214,43.551H72.585a3.628,3.628,0,0,0-3.629,3.629V58.068A29.068,29.068,0,0,1,37.021,86.961C21.937,85.489,10.888,71.929,10.888,56.775V47.18a3.628,3.628,0,0,0-3.629-3.629H3.629A3.628,3.628,0,0,0,0,47.18V56.29C0,76.623,14.51,94.748,34.478,97.5v7.746h-12.7a3.628,3.628,0,0,0-3.629,3.629v3.629a3.628,3.628,0,0,0,3.629,3.629H58.068a3.628,3.628,0,0,0,3.629-3.629v-3.629a3.628,3.628,0,0,0-3.629-3.629h-12.7v-7.66a39.961,39.961,0,0,0,34.478-39.52V47.18A3.628,3.628,0,0,0,76.214,43.551Z" transform="translate(680.156 2012.053)" fill="#4e4e4e"/></g></svg>