<svg xmlns="http://www.w3.org/2000/svg" xmlns:xlink="http://www.w3.org/1999/xlink" width="295" height="295" viewBox="0 0 295 295"><defs><linearGradient id="a" x1="0.226" y1="0.112" x2="0.775" y2="1" gradientUnits="objectBoundingBox"><stop offset="0" stop-color="#f6cbc9" stop-opacity="0.859"/><stop offset="1" stop-color="#fff" stop-opacity="0.49"/></linearGradient></defs><g transform="translate(-391 -1500)"><path d="M147.5,0A147.5,147.5,0,1,1,0,147.5,147.5,147.5,0,0,1,147.5,0Z" transform="translate(391 1500)" opacity="0.33" fill="url(#a)"/><path d="M122,0A122,122,0,1,1,0,122,122,122,0,0,1,122,0Z" transform="translate(416 1525)" opacity="0.6" fill="url(#a)"/><path d="M82.922,3.424c-1.154.221-49.586,9.623-50.617,9.819a2.176,2.176,0,0,0-1.988,1.964V74.146a6.771,6.771,0,0,1-.589,2.872,6.541,6.541,0,0,1-3.952,3.118c-.81.27-1.915.516-3.216.81C16.643,82.271,6.75,84.529,6.75,93.661c0,7.634,5.5,11.071,10.236,11.66a11.967,11.967,0,0,0,1.743.172h0c1.645,0,8.837-.81,12.568-3.24C34,100.485,37.214,97,37.214,90.519V38.355a1.948,1.948,0,0,1,1.571-1.915L76.1,28.9a1.962,1.962,0,0,1,2.357,1.915V62.952a7.037,7.037,0,0,1-.614,3.289,6.524,6.524,0,0,1-3.977,3.118c-.81.27-2.16.515-3.461.81-5.916,1.326-15.809,3.559-15.809,12.691,0,8.273,6.235,11.587,10.261,11.857a20.286,20.286,0,0,0,4.762-.221,28.144,28.144,0,0,0,8.96-3.191,12.939,12.939,0,0,0,6.751-11.832V5.314A1.945,1.945,0,0,0,82.922,3.424Z" transform="translate(492.25 1592.625)" fill="#4e4e4e"/></g></svg>