<svg xmlns="http://www.w3.org/2000/svg" xmlns:xlink="http://www.w3.org/1999/xlink" width="522.906" height="404.949" viewBox="0 0 522.906 404.949"><defs><linearGradient id="a" x1="-6.431" y1="1" x2="-6.431" gradientUnits="objectBoundingBox"><stop offset="0" stop-color="gray" stop-opacity="0.251"/><stop offset="0.54" stop-color="gray" stop-opacity="0.122"/><stop offset="1" stop-color="gray" stop-opacity="0.102"/></linearGradient><linearGradient id="b" x1="14.93" y1="1" x2="14.93" y2="0" xlink:href="#a"/></defs><g transform="translate(0 0.011)"><g transform="translate(9.4 -0.012)"><path d="M295.444,235.157S266.56,198.573,268.8,162.2a70.642,70.642,0,0,0-11.22-43.247A118.494,118.494,0,0,0,244,102" transform="translate(-169.237 -72.831)" fill="none"/><path d="M227.283,49.659c2.042,5.085-1.24,23.531-1.24,23.531s-15.134-11.051-17.176-16.13a9.928,9.928,0,0,1,18.426-7.4Z" transform="translate(-151.24 -43.428)" fill="#f6cbc9"/><path d="M280.109,88.3c-1.051,5.383-13.835,19.084-13.835,19.084s-6.7-17.5-5.647-22.878a9.925,9.925,0,1,1,19.483,3.8Z" transform="translate(-177.528 -60.018)" fill="#f6cbc9"/><path d="M315.609,180.809c-3.621,4.114-21.569,9.487-21.569,9.487s3.053-18.486,6.673-22.6a9.922,9.922,0,0,1,14.9,13.112Z" transform="translate(-194.357 -104.121)" fill="#f6cbc9"/><path d="M329.351,262.1c-2.874,4.671-19.661,13-19.661,13s-.115-18.735,2.759-23.406a9.924,9.924,0,1,1,16.9,10.4Z" transform="translate(-202.212 -145.601)" fill="#f6cbc9"/><path d="M227.835,136.846c5.075,2.077,23.541-1.076,23.541-1.076S240.42,120.562,235.36,118.48a9.925,9.925,0,1,0-7.525,18.368Z" transform="translate(-158.027 -80.73)" fill="#f6cbc9"/><path d="M239.9,229.449c5.478.463,22.141-8.073,22.141-8.073s-14.995-11.24-20.453-11.7A9.925,9.925,0,1,0,239.9,229.45Z" transform="translate(-162.618 -126.864)" fill="#f6cbc9"/><path d="M268.608,318.42c5.3,1.384,23.182-4.213,23.182-4.213s-12.878-13.61-18.182-14.99a9.92,9.92,0,1,0-4.98,19.2Z" transform="translate(-177.869 -171.672)" fill="#f6cbc9"/><path d="M227.283,49.659c2.042,5.085-1.24,23.531-1.24,23.531s-15.134-11.051-17.176-16.13a9.928,9.928,0,0,1,18.426-7.4Z" transform="translate(-151.24 -43.428)" fill="#f6cbc9" opacity="0.25"/><path d="M280.109,88.3c-1.051,5.383-13.835,19.084-13.835,19.084s-6.7-17.5-5.647-22.878a9.925,9.925,0,1,1,19.483,3.8Z" transform="translate(-177.528 -60.018)" fill="#f6cbc9" opacity="0.25"/><path d="M315.609,180.809c-3.621,4.114-21.569,9.487-21.569,9.487s3.053-18.486,6.673-22.6a9.922,9.922,0,0,1,14.9,13.112Z" transform="translate(-194.357 -104.121)" fill="#f6cbc9" opacity="0.25"/><path d="M329.351,262.1c-2.874,4.671-19.661,13-19.661,13s-.115-18.735,2.759-23.406a9.924,9.924,0,1,1,16.9,10.4Z" transform="translate(-202.212 -145.601)" fill="#f6cbc9" opacity="0.25"/><path d="M227.835,136.846c5.075,2.077,23.541-1.076,23.541-1.076S240.42,120.562,235.36,118.48a9.925,9.925,0,1,0-7.525,18.368Z" transform="translate(-158.027 -80.73)" fill="#f6cbc9" opacity="0.25"/><path d="M239.9,229.449c5.478.463,22.141-8.073,22.141-8.073s-14.995-11.24-20.453-11.7A9.925,9.925,0,1,0,239.9,229.45Z" transform="translate(-162.618 -126.864)" fill="#f6cbc9" opacity="0.25"/><path d="M268.608,318.42c5.3,1.384,23.182-4.213,23.182-4.213s-12.878-13.61-18.182-14.99a9.92,9.92,0,1,0-4.98,19.2Z" transform="translate(-177.869 -171.672)" fill="#f6cbc9" opacity="0.25"/><path d="M245,264.616s-41.235-21.738-53.924-55.9a70.735,70.735,0,0,0-27.784-34.99,118.428,118.428,0,0,0-19.288-10" transform="translate(-119.038 -103.814)" fill="none"/><path d="M110.72,117.746c3.924,3.825,8.4,22.017,8.4,22.017s-18.312-3.984-22.241-7.789a9.925,9.925,0,1,1,13.84-14.229Z" transform="translate(-93.875 -79.324)" fill="#f6cbc9"/><path d="M174.594,131.7c1.22,5.344-4.915,23.048-4.915,23.048s-13.212-13.287-14.442-18.63a9.923,9.923,0,1,1,19.347-4.417Z" transform="translate(-124.552 -83.868)" fill="#f6cbc9"/><path d="M248.563,200.489c-1.643,5.229-15.876,17.43-15.876,17.43s-4.7-18.137-3.058-23.366a9.925,9.925,0,0,1,18.924,5.951Z" transform="translate(-161.848 -115.971)" fill="#f6cbc9"/><path d="M291.337,270.081c-.737,5.433-12.7,19.846-12.7,19.846s-7.7-17.082-6.972-22.51a9.925,9.925,0,1,1,19.671,2.664Z" transform="translate(-183.098 -151.555)" fill="#f6cbc9"/><path d="M146.565,197.234c5.478-.154,21.086-10.523,21.086-10.523S151.48,177.249,146,177.4a9.922,9.922,0,0,0,.563,19.836Z" transform="translate(-115.203 -110.68)" fill="#f6cbc9"/><path d="M195.1,277.1c5.179-1.788,16.967-16.354,16.967-16.354s-18.257-4.2-23.441-2.41A9.925,9.925,0,1,0,195.1,277.1Z" transform="translate(-138.08 -151.087)" fill="#f6cbc9"/><path d="M257.377,346.771c5.408-.886,19.492-13.252,19.492-13.252s-17.291-7.221-22.7-6.335a9.924,9.924,0,1,0,3.207,19.588Z" transform="translate(-170.164 -185.834)" fill="#f6cbc9"/></g><ellipse cx="261.453" cy="36.354" rx="261.453" ry="36.354" transform="translate(0 332.229)" fill="#6c63ff" opacity="0.1"/><rect width="282.867" height="340.636" rx="19.8" transform="translate(105.079 8.027)" fill="#464353"/><rect width="234.063" height="271.911" transform="translate(129.481 42.389)" fill="#6c63ff" opacity="0.1"/><circle cx="9.96" cy="9.96" r="9.96" transform="translate(236.553 322.268)" fill="#fff"/><circle cx="4.731" cy="4.731" r="4.731" transform="translate(241.782 23.216)" fill="#fff"/><path d="M564.98,90.058A4.482,4.482,0,1,1,560.5,94.54a4.482,4.482,0,0,1,4.482-4.482m0-.5a4.98,4.98,0,1,0,4.98,4.98,4.98,4.98,0,0,0-4.98-4.98Z" transform="translate(-318.467 -66.598)" fill="#fff"/><path d="M546.908,324.14a9.856,9.856,0,0,0,9.816-9.836V292.746a9.816,9.816,0,1,0-19.631,0V314.3A9.856,9.856,0,0,0,546.908,324.14Zm17.346-10.8c0,9.836-8.347,16.723-17.346,16.723s-17.346-6.892-17.346-16.723H524c0,11.15,8.835,20.5,19.636,21.972v11.738h6.544V335.31c10.8-1.638,19.636-10.822,19.636-21.967Z" transform="translate(-300.396 -163.668)" fill="#f7aab0"/><path d="M475.847,510.359a.418.418,0,0,1-.269-.1l-4.552-4.193v4.288H470v-8.989h1.026v4.288l4.562-4.223a.388.388,0,0,1,.259-.09.423.423,0,0,1,.433.428v8.137a.428.428,0,0,1-.433.453Z" transform="translate(-273.288 -273.309)" fill="#fff"/><path d="M475.591,501.378a.174.174,0,0,1,.184.179v8.137a.179.179,0,0,1-.184.184.184.184,0,0,1-.1-.04l-4.133-3.8-.433-.4.438-.4,4.128-3.825a.174.174,0,0,1,.1-.035m-5.07,0V509.9h-.533v-8.526h.533m5.07-.5a.658.658,0,0,0-.428.154l-4.143,3.84v-3.74a.254.254,0,0,0-.254-.254h-1.021a.254.254,0,0,0-.254.254v8.989a.254.254,0,0,0,.254.254h1.021a.254.254,0,0,0,.254-.254v-3.705l4.143,3.815a.662.662,0,0,0,.428.159.677.677,0,0,0,.682-.682v-8.152a.672.672,0,0,0-.682-.677Z" transform="translate(-273.032 -273.078)" fill="#fff"/><path d="M657.823,510.379a.443.443,0,0,1-.3-.12.413.413,0,0,1-.134-.314v-8.137a.428.428,0,0,1,.433-.428.4.4,0,0,1,.274.1l4.577,4.193V501.39h1v8.994h-1v-4.318l-4.562,4.223A.409.409,0,0,1,657.823,510.379Z" transform="translate(-367.357 -273.329)" fill="#fff"/><path d="M657.572,501.378a.155.155,0,0,1,.1.035l4.133,3.8.433.4-.433.4-4.133,3.825a.159.159,0,0,1-.1.04.184.184,0,0,1-.184-.184v-8.137a.179.179,0,0,1,.184-.179m5.608,0V509.9h-.533v-8.526h.533m-5.608-.5a.677.677,0,0,0-.682.677v8.137a.677.677,0,0,0,.682.682.668.668,0,0,0,.433-.159l4.143-3.835v3.74a.254.254,0,0,0,.254.254h1a.254.254,0,0,0,.259-.254v-8.989a.254.254,0,0,0-.259-.254h-1a.254.254,0,0,0-.254.254v3.715l-4.143-3.815a.663.663,0,0,0-.433-.154Z" transform="translate(-367.106 -273.078)" fill="#fff"/><path d="M567.175,510.709a.767.767,0,0,1-.767-.767v-7.435a.767.767,0,0,1,.767-.767H569.2a.767.767,0,0,1,.767.767v7.435a.767.767,0,0,1-.767.767Zm-5.408,0a.767.767,0,0,1-.767-.767v-7.435a.767.767,0,0,1,.767-.767h2.027a.767.767,0,0,1,.767.767v7.435a.767.767,0,0,1-.767.767Z" transform="translate(-318.969 -273.51)" fill="#fff"/><path d="M568.971,501.758a.5.5,0,0,1,.5.5v7.435a.5.5,0,0,1-.5.5h-2.027a.5.5,0,0,1-.5-.5v-7.415a.5.5,0,0,1,.5-.5h2.027m-5.408,0a.5.5,0,0,1,.5.5v7.435a.5.5,0,0,1-.5.5h-2.027a.5.5,0,0,1-.5-.5v-7.435a.5.5,0,0,1,.5-.5h2.027m5.408-.5h-2.027a1,1,0,0,0-1,1v7.435a1,1,0,0,0,1,1h2.027a1,1,0,0,0,1-1v-7.435A1,1,0,0,0,568.971,501.28Zm-5.408,0h-2.027a1,1,0,0,0-1,1v7.435a1,1,0,0,0,1,1h2.027a1,1,0,0,0,1-1v-7.435A1,1,0,0,0,563.563,501.28Z" transform="translate(-318.738 -273.279)" fill="#fff"/><rect width="119.521" height="1.33" transform="translate(186.752 215.939)" fill="#f6cbc9" opacity="0.5"/><path d="M521.173,478.357a2.908,2.908,0,1,1,2.9-2.9A2.908,2.908,0,0,1,521.173,478.357Z" transform="translate(-297.514 -258.852)" fill="#fff"/><path d="M520.922,472.548a2.659,2.659,0,1,1-2.654,2.659,2.659,2.659,0,0,1,2.654-2.659m0-.5a3.152,3.152,0,1,0,2.231.925,3.157,3.157,0,0,0-2.231-.925Z" transform="translate(-297.263 -258.606)" fill="#fff"/><rect width="36.409" height="0.832" transform="translate(187.001 216.188)" fill="#fff"/><path d="M486.409,477.548v.334H450.5v-.334h35.911m.5-.5H450v1.33h36.907Z" transform="translate(-263.248 -261.116)" fill="#fff"/><path d="M905.579,631.8c-18.74,0-33.929,21.21-33.929,47.38s15.189,47.38,33.929,47.38S939.5,705.346,939.5,679.18,924.314,631.8,905.579,631.8Zm1.753,88.247c-16.474,0-29.831-18.576-29.831-41.484s13.357-41.479,29.831-41.479,29.836,18.571,29.836,41.479S923.811,720.047,907.332,720.047Z" transform="translate(-474.914 -338.799)" fill="#35323e"/><path d="M883.735,519l-2.341,39.781H835.428a15.936,15.936,0,0,0-10.812,4.089,14.408,14.408,0,0,0-4.636,9.362v59.681h5.847l-.04-4.094h57.948v-5.852H825.722l-.5-47.868a7.746,7.746,0,0,1,.184-1.793,9.452,9.452,0,0,1,4.074-6.066,7.64,7.64,0,0,1,3.9-1h52.1l2.928-41.534h17.545V519Z" transform="translate(-448.976 -282.174)" fill="#464353"/><path d="M883.735,519l-2.341,39.781H835.428a15.936,15.936,0,0,0-10.812,4.089,14.408,14.408,0,0,0-4.636,9.362v59.681h5.847l-.04-4.094h57.948v-5.852H825.722l-.5-47.868a7.746,7.746,0,0,1,.184-1.793,9.452,9.452,0,0,1,4.074-6.066,7.64,7.64,0,0,1,3.9-1h52.1l2.928-41.534h17.545V519Z" transform="translate(-448.976 -282.174)" opacity="0.1"/><path d="M811.373,516.994l44.163-1.464L853.2,576.954l-105.876,1.17,2.629-24.86,57.619,9.651Z" transform="translate(-375.151 -258.799)" fill="#35323e"/><rect width="58.496" height="5.852" transform="translate(417.797 339.798)" fill="#464353"/><path d="M943.854,699.511V682.3h-4.676v17.211c-1.733,1.295-2.928,3.984-2.928,7.067,0,4.362,2.36,7.9,5.269,7.9s5.264-3.536,5.264-7.9C946.783,703.48,945.588,700.806,943.854,699.511Z" transform="translate(-507.343 -364.15)" fill="#464353"/><path d="M900.235,744.769a5.508,5.508,0,0,1,7.191-.259h0s7.017,4.681.583,24.572c0,0-4.676,2.923-2.336-6.439s1.165-15.209-1.17-15.209-5.264,6.439-5.264,6.439l-4.1-1.758A24.883,24.883,0,0,1,900.235,744.769Z" transform="translate(-486.706 -394.771)" fill="#464353"/><path d="M812.145,744.761a5.478,5.478,0,0,1,7.186-.259h0s7.022,4.681.588,24.572c0,0-4.681,2.923-2.341-6.439s1.17-15.209-1.17-15.209-5.264,6.439-5.264,6.439l-4.094-1.758A24.881,24.881,0,0,1,812.145,744.761Z" transform="translate(-442.485 -394.763)" fill="#464353"/><ellipse cx="13.162" cy="17.55" rx="13.162" ry="17.55" transform="translate(356.96 355.007)" fill="#35323e"/><ellipse cx="13.162" cy="17.55" rx="13.162" ry="17.55" transform="translate(400.83 355.007)" fill="#35323e"/><path d="M747.409,612.271c4.268,2.859,10.742,1.494,10.742,1.494s9.781-4.631,12.674-4.631,9.915-2.839,9.915-2.839l-.239-1.927-.717-5.812c4.452,3.486,9.4,2.271,11.838,1.992,2.62-.269,16.594-8.581,17.928-9.123a3.585,3.585,0,0,0,1.23-1.24h0a31.532,31.532,0,0,0,2.375-4.308h0a7.3,7.3,0,0,0,1.494-1.524,14.306,14.306,0,0,1,.857-2.286,11.18,11.18,0,0,0,4.243-1.529,3.835,3.835,0,0,0,.583-.593,3.771,3.771,0,0,0,.792-2.405s13.635-13.755,11.848-19.477,4.407-5.862,4.407-5.862,9.5-4.084,10.827-6.539c.817-1.494,7.943-4.816,13.307-7.146l.662-.284c2.082,4.567,12.654,1.056,14.736-.876,2.206-2.047,8.675-2.988,8.675-2.988s.279-26.7,2.346-30.1c1-1.618,1.215-6.887,1.19-11.982v-.528c2.893-.563,9.776-1.873,12.948-2.191a12.438,12.438,0,0,0,5.757-2.689l.189.239a3.984,3.984,0,0,0,1.763.289,2.735,2.735,0,0,0,1.544-.289c1.24-.682,5.782-2.042,7.435-2.724s-.274-5.588-1.494-6.539-2.067-2.181-1.38-2.724-1.648-1.907-3.028-2.181a44.824,44.824,0,0,1-5.508-2.181s-1.494-3.132-3.984-3.132-5.787-2.45-5.787-2.45c-.139-1.091-2.754-1.225-2.754-1.225s-9.92-7.629-11.574-6.678-6.2-1.494-6.2-1.494-5.578.628-6.887-.4h0a1.544,1.544,0,0,0-.334-.921c-.294-.921-1.738-2.186-3.133-3.242a12.142,12.142,0,0,0,.159-1.967,8.056,8.056,0,0,0-.03-.852v-.139l.194-1.917a3.984,3.984,0,0,1,.5-1.808c.234-.359.573-.642.832-1a2.084,2.084,0,0,0,.169-.259.316.316,0,0,0,.04-.07,1.986,1.986,0,0,0,.1-.2l.03-.07a3.03,3.03,0,0,0,.179-.583v-.045c0-.015.03-.184.04-.274a.108.108,0,0,0,0-.04,5.856,5.856,0,0,0-.309-2.336,15.859,15.859,0,0,1-1.13-3.875,11.593,11.593,0,0,0-.07-1.992c-.329-1.494-1.863-2.44-3.337-3.058a18.432,18.432,0,0,1-4.7-3.053c-1.394-1.076-3.685-.538-5.438-.423a47.484,47.484,0,0,0-11.7,2.7,11.876,11.876,0,0,0-4.089,2.027,4.522,4.522,0,0,0-1.494,2.525h0a3.173,3.173,0,0,0-.045.687.245.245,0,0,0,0,.06,2.379,2.379,0,0,0,.03.264.5.5,0,0,0,0,.085,2.423,2.423,0,0,0,.08.314h0c.159.5.453.961.622,1.459a2.786,2.786,0,0,1,.095.334v.04a2.522,2.522,0,0,0,.055.329h0a14.5,14.5,0,0,1-.5,3.795c-.03.179-.05.364-.065.548h0a6.544,6.544,0,0,0,.194,2.176h0a.82.82,0,0,0,.08.259,1,1,0,0,0,.035.115.641.641,0,0,0,.085.214,1.437,1.437,0,0,0,.06.139c.025.045.055.129.085.189l.08.154.1.169c.03.055.065.1.1.159s.065.1.1.149a1.683,1.683,0,0,0,.125.154l.109.134.144.149a1.241,1.241,0,0,0,.115.115c.055.055.114.1.169.149l.12.095a2.3,2.3,0,0,0,.214.144l.1.07c.115.065.229.124.349.179.792.364,1.788.5,2.266,1.185a1.636,1.636,0,0,1,.234.543v.259a11.848,11.848,0,0,0,.07,1.2,4.665,4.665,0,0,0,.035.647,1.936,1.936,0,0,0,.134.468,12.35,12.35,0,0,0,4.178,7.017c.04.209.085.453.139.732a13.815,13.815,0,0,1-3.984,2.1c-3.307.971-7.993,5.433-7.993,5.433s-2.326,16.758-2.883,18.8-1,9.96-1,9.96a22.839,22.839,0,0,1-1.379,4.905c-.583,1.155-.5,6.1,1.155,9.108a7.468,7.468,0,0,1-1,1.653c-3.307,3.815-13.222,3.68-16.529,3.68-3.048,0-3.984,1.843-4.114,2.136-6.051,1.718-25.657,7.311-27.983,8.332-2.754,1.2-4.268,13.1-4.268,13.1s-5.787,19.751-5.508,22.35-1.987,9.8-1.987,9.8,0,8.147-.936,8.7c-.966.408-.827,4.363-.827,4.363s.707.2,1.813.5a31.624,31.624,0,0,1-2.231,6.773c-.428-.543-.847-.772-1.1-.134-.692,1.733-11.021,13.994-13.64,13.994a7.931,7.931,0,0,0-4.661,2.4C745.8,608.85,745.172,610.777,747.409,612.271Zm47.37-70.956a114.772,114.772,0,0,0,24.243-.832,27.658,27.658,0,0,1-1.788,4.781c-.827,1.36-3.172,9.128-3.172,10.762s-3.715,15.667-4.821,16.349a4.074,4.074,0,0,0-1.2,1.733,16.561,16.561,0,0,0-.732,2.082,6.767,6.767,0,0,0,.095,1c-.822.757-1.693,1.549-2.49,2.246h0a54.163,54.163,0,0,0-6.579,4.238c-1.653,1.494-9.363,3.337-9.363,3.337a47.777,47.777,0,0,0-5.513,2.854c-2.391,1.439-4.786,3.272-5.408,5.08.269-3.043.712-6.713,1-9.044h.438c3.86-.239,3.282-3.924,3.083-4.836-.03-.129-.05-.2-.05-.2,2.754-2.988,8.964-25.339,8.122-27.789s.692-4.631,1-4.631.772-2.729.085-4.223S794.779,541.316,794.779,541.316Zm94.681-60.1-.727.179v-.154s.274,0,.737-.025Zm-40.02-20.553c-.115.134-.224.269-.344.393l-.139.149v-.757Zm-13.8,26.429.05.767s-.075.463-.214,1.265Zm63.3-7.615-2.405.413c.344-.129.677-.269,1-.423a2.406,2.406,0,0,1,.767-.209,4.4,4.4,0,0,1,.9.194,1.5,1.5,0,0,0-.244.025Z" transform="translate(-411.813 -236.004)" fill="url(#a)"/><path d="M874.674,725.689s-2.769,5.727-2.635,6.13-5.946,5.274-5.946,5.274l-6.623-4.731.672-3.247s7.44-6.7,7.968-7.47S874.674,725.689,874.674,725.689Z" transform="translate(-468.8 -383.859)" fill="#efb7b9"/><path d="M813.177,750.5c4.6,4.482,10,3.107,12.575,2.839s16.29-8.521,17.6-9.059a3.516,3.516,0,0,0,1.205-1.23h0a32.031,32.031,0,0,0,2.321-4.288c-.09,0-4.587,1.3-5.722,0,0,0-1.892-2.321-2.3-2.321s-.03-4.069-.03-4.069a53.876,53.876,0,0,0-6.474,4.2c-1.638,1.484-9.193,3.312-9.193,3.312a46.087,46.087,0,0,0-5.438,2.809C814.158,744.875,810.563,747.958,813.177,750.5Z" transform="translate(-445.111 -389.285)" fill="#67647e"/><path d="M813.177,760.9c4.6,4.482,10,3.107,12.575,2.839s16.29-8.521,17.6-9.059a3.516,3.516,0,0,0,1.205-1.23c-1.6-.951-12.052,5.692-14.975,6.907s-10.324.543-14.517-1.215c-2.092-.876.03-3.576,2.674-6.051C814.159,755.276,810.563,758.359,813.177,760.9Z" transform="translate(-445.112 -399.686)" opacity="0.1"/><path d="M801.541,738.572s-1.927,14.467-1.439,16.359-12.082-6.474-12.082-6.474,4.4-9.064,3.108-11.145S801.541,738.572,801.541,738.572Z" transform="translate(-432.932 -391.423)" fill="#efb7b9"/><path d="M790.994,671.3s7.839,2.3,12.166,2.027c3.79-.239,3.222-3.894,3.023-4.8-.03-.129-.05-.2-.05-.2,2.7-2.988,8.79-25.144,7.968-27.58s.677-4.6,1-4.6.762-2.7.085-4.188,2.988-2.839,2.988-2.839a111.492,111.492,0,0,0,23.795-.827,27.877,27.877,0,0,1-1.758,4.746c-.812,1.355-3.108,9.059-3.108,10.682s-3.65,15.543-4.731,16.22a4.059,4.059,0,0,0-1.18,1.723,16.173,16.173,0,0,0-.712,2.062c.4,9.059,10.677,5.543,12.166,4.328a3.981,3.981,0,0,0,.573-.588,3.755,3.755,0,0,0,.777-2.385s13.386-13.655,11.628-19.333,4.328-5.817,4.328-5.817,9.328-4.054,10.622-6.474c.8-1.494,7.8-4.781,13.063-7.092,3.3-1.444,5.921-2.49,5.921-2.49l-2.2-7.893-1.743-6.2-3.257-1.225-10.4-3.914-18.675-2.57-1.713.224-18.142,2.346s-26.5,7.57-29.2,8.765-4.168,13.028-4.168,13.028-5.682,19.6-5.408,22.181-1.892,9.721-1.892,9.721,0,8.088-.921,8.64h-.025C790.865,667.378,790.994,671.3,790.994,671.3Z" transform="translate(-434.422 -323.88)" fill="#575988"/><path d="M845.57,645.6a111.494,111.494,0,0,0,23.795-.827c.812-2.555,12.176-9.587,12.176-9.587C872.218,632.895,845.57,645.6,845.57,645.6Z" transform="translate(-461.822 -340.362)" opacity="0.1"/><path d="M870.28,723.792c.4,9.059,10.677,5.543,12.166,4.328a3.983,3.983,0,0,0,.573-.588c-3.591,1.32-9.96,2.341-12.027-5.8A16.174,16.174,0,0,0,870.28,723.792Z" transform="translate(-474.226 -383.944)" fill="#444053"/><path d="M790.994,736.7s7.839,2.3,12.166,2.027c3.79-.239,3.222-3.894,3.023-4.8-3.984-.125-10.807-.5-14.353-1.569h-.025C790.865,732.778,790.994,736.7,790.994,736.7Z" transform="translate(-434.422 -389.28)" fill="#444053"/><path d="M870.28,723.792c.4,9.059,10.677,5.543,12.166,4.328a3.983,3.983,0,0,0,.573-.588c-3.591,1.32-9.96,2.341-12.027-5.8A16.174,16.174,0,0,0,870.28,723.792Z" transform="translate(-474.226 -383.944)" opacity="0.1"/><path d="M790.994,736.7s7.839,2.3,12.166,2.027c3.79-.239,3.222-3.894,3.023-4.8-3.984-.125-10.807-.5-14.353-1.569h-.025C790.865,732.778,790.994,736.7,790.994,736.7Z" transform="translate(-434.422 -389.28)" opacity="0.1"/><path d="M750.739,776.075c4.188,2.839,10.543,1.494,10.543,1.494s9.6-4.6,12.45-4.6,9.731-2.839,9.731-2.839l-.229-1.917-1.121-9.168s-10.528-.274-10.956-1.22c0,0-1.892-4.656-2.57-2.933s-10.817,13.884-13.381,13.884a7.653,7.653,0,0,0-4.582,2.385C749.15,772.683,748.543,774.591,750.739,776.075Z" transform="translate(-413.494 -400.4)" fill="#67647e"/><path d="M825.21,637.37s8.79,5.543,6.369,6.788S825.21,637.37,825.21,637.37Z" transform="translate(-451.601 -341.595)" opacity="0.1"/><path d="M817.88,658.82s7.57,7.186,4.731,7.38S817.88,658.82,817.88,658.82Z" transform="translate(-447.922 -352.363)" opacity="0.1"/><path d="M801.59,704.7s3.845,7.226,2.4,8.466S801.59,704.7,801.59,704.7Z" transform="translate(-439.744 -375.395)" opacity="0.1"/><path d="M886.469,714.582c-1.35,1.35,12.844-4.482,9.6-4.731S886.469,714.582,886.469,714.582Z" transform="translate(-482.307 -377.976)" opacity="0.1"/><path d="M943.57,497.253l.453-.07c1.683-.259,7.774-1.215,13.242-2.4,1.335-.289,2.625-.593,3.81-.9,4.188-1.1,6.972-2.286,5.209-3.257A9.6,9.6,0,0,1,962,484.987c-.06-.194-.12-.388-.174-.578a14.606,14.606,0,0,1-.543-3.113s-15.279-5.408-12.306,0a5.1,5.1,0,0,1-.9,6.335,11.809,11.809,0,0,1-3.287,2.455Z" transform="translate(-511.017 -262.041)" fill="#efb7b9"/><path d="M942.789,507.34s-5.478,3.919-11.046.677-12.883,28.66-12.883,28.66l-7.57,18.655s-4.905,4.059,1.2,5.817,19.646-1.758,23.083,3.376,9.96,5.976,10.612,5.976,3.242-19.333,3.242-19.333l.667-27.988Z" transform="translate(-493.877 -276.321)" opacity="0.1"/><path d="M913.036,558.974c6.1,1.758,19.641-1.758,23.078,3.381a13.237,13.237,0,0,0,5.817,4.681,15.176,15.176,0,0,0,4.8,1.265c.09,0,.219-.354.364-.966.956-3.914,2.879-18.366,2.879-18.366l.667-27.983-6.424-13.909-.857-1.907a11.7,11.7,0,0,1-2.784,1.355,9.8,9.8,0,0,1-8.262-.677c-1.638-.956-3.421,1.121-5.129,4.527-4.109,8.2-7.754,24.133-7.754,24.133l-7.57,18.655q-.261.236-.5.5C910.247,554.786,908.23,557.6,913.036,558.974Z" transform="translate(-494.154 -275.232)" fill="#f3f5f9"/><path d="M972.457,552.29a35.348,35.348,0,0,0-.179,7.121,84.5,84.5,0,0,0,1.27,10.055,3.809,3.809,0,0,0,.164.612c3.3-1.444,5.921-2.49,5.921-2.49l-2.2-7.878c.956-3.914,2.879-18.367,2.879-18.367l.667-27.983-6.424-13.909c4.188-1.1,6.972-2.286,5.209-3.257a9.908,9.908,0,0,1-4.457-6.215,22.644,22.644,0,0,1-3.84,4.133l-.085.07-.5,4.721-.149,1.449-.309,2.988s1.494,35.558,2.57,37.584.538,5.946-.408,10.543C972.547,551.743,972.5,552.012,972.457,552.29Z" transform="translate(-524.501 -267.606)" opacity="0.1"/><path d="M973.691,542.347c-.946,4.6-.134,12.166.946,17.978s12.57,2.032,14.736,0,8.516-2.988,8.516-2.988.269-26.5,2.3-29.88c.961-1.6,1.2-6.838,1.17-11.892,0-4.537-.244-8.929-.329-10.423a3.262,3.262,0,0,0-.035-.533s8.79-14.87,8.655-15.936-2.7-1.22-2.7-1.22-9.736-7.57-11.355-6.623-6.086-1.494-6.086-1.494-5.652.642-6.823-.448a.6.6,0,0,1-.209-.5c.134-1.728-5.762-5.423-5.941-5.538,4.98,4.482-3.068,11.354-3.984,12.111l-.085.07-.946,9.178s1.494,35.553,2.57,37.579S974.638,537.75,973.691,542.347Z" transform="translate(-525.048 -259.007)" fill="#725e97"/><circle cx="0.677" cy="0.677" r="0.677" transform="translate(448.489 244.042)" fill="#444053"/><path d="M974.15,486.077l4.1,3.984,6.021-10.045a.587.587,0,0,1-.2-.5c.13-1.728-5.762-5.428-5.946-5.538C983.094,478.437,975.071,485.325,974.15,486.077Z" transform="translate(-526.368 -259.574)" opacity="0.1"/><circle cx="0.677" cy="0.677" r="0.677" transform="translate(449.838 265.67)" opacity="0.1"/><circle cx="0.677" cy="0.677" r="0.677" transform="translate(449.838 265.401)" fill="#444053"/><path d="M973.6,484.987l4.109,3.984,6.021-10.055a.6.6,0,0,1-.209-.5c.135-1.728-5.762-5.423-5.941-5.538C982.544,477.342,974.511,484.23,973.6,484.987Z" transform="translate(-526.092 -259.022)" fill="#725e97"/><rect width="9.407" height="19.88" rx="1.7" transform="translate(452.72 264.438) rotate(-178.69)" fill="#464353"/><circle cx="1.479" cy="1.479" r="1.479" transform="translate(446.995 248.828)" fill="#fff"/><path d="M873.26,550.1c3.381,1.494,25.553-2.435,28.8-3.381s7.968-8.247,5.677-13.521.812-10.408.812-10.408,4.865-10.408,5.946-12.45,3.337-7.933,3.65-8.919a.792.792,0,0,0-.194-.622c-.876-1.335-4.268-3.705-4.268-3.705-.956.344-1.071-2.385-1.036-4.4,0-1.125.09-2.022.09-2.022s-.448.458-1.18,1.081c-.269.224-.573.473-.911.727a13.98,13.98,0,0,1-4.263,2.331c-3.242.956-7.839,5.388-7.839,5.388l1.35,20.767s-3.108,19.522-6.354,23.307-12.978,3.65-16.22,3.65S873.26,550.1,873.26,550.1Z" transform="translate(-475.722 -267.953)" opacity="0.1"/><path d="M872.72,548.427c3.381,1.494,25.553-2.435,28.795-3.381s7.968-8.247,5.677-13.521.812-10.408.812-10.408,4.871-10.408,5.951-12.45,3.337-7.928,3.65-8.919a.832.832,0,0,0-.194-.622c-.876-1.335-4.268-3.705-4.268-3.705-.956.349-1.076-2.385-1.036-4.4,0-1.125.09-2.022.09-2.022s-.448.458-1.18,1.081c-.269.224-.578.473-.911.727a13.978,13.978,0,0,1-4.263,2.331c-3.247.961-7.844,5.388-7.844,5.388l1.355,20.767S896.241,538.815,893,542.6s-12.978,3.67-16.225,3.67S872.72,548.427,872.72,548.427Z" transform="translate(-475.451 -267.114)" fill="#725e97"/><path d="M946.56,490.11s.125.712.339,1.808c.727,3.71,2.49,11.818,3.715,11.5.9-.224,2.415-1.813,3.6-3.187-.881-1.34-4.268-3.705-4.268-3.705-.956.344-1.076-2.39-1.036-4.4l-1.1-.946Z" transform="translate(-512.518 -267.672)" opacity="0.1"/><path d="M947.1,489s.13.712.344,1.808c.727,3.715,2.46,11.823,3.715,11.509.9-.224,2.41-1.818,3.591-3.192-.876-1.335-4.268-3.705-4.268-3.705-.956.349-1.076-2.385-1.036-4.4l-1.091-.941Z" transform="translate(-512.789 -267.114)" fill="#725e97"/><path d="M923.746,560.765s6.758-1.35,8.65-4.323,14.771-5.543,13.2-2.435-13.2,13.282-13.2,13.282l-5.03,7.2-6.728-1.708-2.829-5.508Z" transform="translate(-498.086 -299.039)" fill="#efb7b9"/><path d="M954.17,584.45s-6.544,2.435-7.53,5.677S954.17,584.45,954.17,584.45Z" transform="translate(-512.518 -315.03)" opacity="0.1"/><path d="M962.234,592s.593,3.377-7.615,3.108Z" transform="translate(-516.564 -318.82)" opacity="0.1"/><path d="M1031.362,504.9l2.988-.269s3.247,2.43,5.677,2.43,3.924,3.113,3.924,3.113a43.388,43.388,0,0,0,5.408,2.161c1.355.269,3.65,1.623,2.988,2.161s.135,1.758,1.35,2.7,3.112,5.817,1.494,6.474-6.086,2.027-7.3,2.7a3.348,3.348,0,0,1-2.7,0s-7.161-9.328-10.812-7.57a23.433,23.433,0,0,1-8.655,1.758l-3.919-8.247Z" transform="translate(-550.288 -274.961)" opacity="0.1"/><path d="M914.323,551.148a3.6,3.6,0,0,0,2.52,1.753,19.068,19.068,0,0,0,7.878-.727s-13.62-4.328-.5-14.846h-3.516l-1.17-.443.538-2.8.767-25.254L918,508.15s-2.281,16.633-2.829,18.66-.956,9.865-.956,9.865a22.787,22.787,0,0,1-1.35,4.87C912.241,542.766,912.4,548.264,914.323,551.148Z" transform="translate(-495.44 -276.728)" fill="#725e97"/><path d="M917.2,580.113a3.62,3.62,0,0,0,2.52,1.753,19.067,19.067,0,0,0,7.873-.727s-13.62-4.328-.5-14.846h-3.521l-1.17-.443C920.477,569.256,917.449,575.327,917.2,580.113Z" transform="translate(-497.78 -305.693)" opacity="0.1"/><path d="M916.12,580.113a3.6,3.6,0,0,0,2.52,1.753,19.068,19.068,0,0,0,7.878-.727s-13.62-4.328-.5-14.846H922.5l-1.17-.443C919.4,569.256,916.364,575.327,916.12,580.113Z" transform="translate(-497.238 -305.693)" fill="none"/><path d="M916.12,580.113a3.6,3.6,0,0,0,2.52,1.753,19.068,19.068,0,0,0,7.878-.727s-13.62-4.328-.5-14.846H922.5l-1.17-.443C919.4,569.256,916.364,575.327,916.12,580.113Z" transform="translate(-497.238 -305.693)" fill="#725e97"/><path d="M952.62,487.632a12.3,12.3,0,0,0,13.944-2.644c-.06-.194-.12-.388-.174-.578a14.6,14.6,0,0,1-.543-3.113s-15.279-5.408-12.306,0A5.152,5.152,0,0,1,952.62,487.632Z" transform="translate(-515.56 -262.041)" opacity="0.1"/><path d="M938.14,460.393v.12a11.547,11.547,0,0,0,.07,1.185,10.9,10.9,0,0,0,.169,1.106,12.306,12.306,0,0,0,23.705,1.589c.08-.234.154-.5.219-.722a12.247,12.247,0,0,0,.443-3.277,7.963,7.963,0,0,0-.03-.847,12.3,12.3,0,0,0-24.577.847Z" transform="translate(-508.291 -246.545)" fill="#efb7b9"/><path d="M938.12,460.513a5.168,5.168,0,0,1,.07,1.185,4.575,4.575,0,0,0,.035.642,1.9,1.9,0,0,0,.135.463,2.294,2.294,0,0,0,3.187,1.17,3.455,3.455,0,0,0,.961-1.255c1.135-2.111,2.719-4.542,5.2-4.587a12.6,12.6,0,0,1,3.083.692,3.23,3.23,0,0,0,2.988-.408c.588-.533.866-1.449,1.653-1.638s1.494.533,1.877,1.245.647,1.539,1.38,1.9c.324.164.707.209,1.026.383,1.494.807.8,3.63,2.326,4.084a.679.679,0,0,0,.144.035l.075-.757c.14-1.37.274-2.744.413-4.123a12.3,12.3,0,0,0-24.577.847Z" transform="translate(-508.271 -246.545)" opacity="0.1"/><path d="M954.823,432.292c1.444.613,2.948,1.554,3.272,3.028a11.949,11.949,0,0,1,.07,1.992,15.671,15.671,0,0,0,1.11,3.845,4.262,4.262,0,0,1-.264,3.85c-.254.344-.588.623-.817,1a3.923,3.923,0,0,0-.473,1.793l-.667,6.653c-1.718-.319-.951-3.292-2.49-4.118-.319-.174-.7-.224-1.026-.383-.732-.364-1-1.2-1.379-1.907s-1.076-1.434-1.878-1.24-1.066,1.106-1.653,1.638a3.265,3.265,0,0,1-2.988.4,11.476,11.476,0,0,0-3.083-.687c-2.49.04-4.069,2.49-5.2,4.582a3.432,3.432,0,0,1-.961,1.26c-1.205.852-3.118-.219-3.322-1.638-.115-.792.13-1.678-.329-2.351s-1.444-.817-2.221-1.175c-1.992-.906-2.59-3.376-2.261-5.443.239-1.494.832-3.028.344-4.482-.164-.5-.453-.946-.613-1.444a3.9,3.9,0,0,1,1.39-3.914,11.419,11.419,0,0,1,4.014-2.017,46.326,46.326,0,0,1,11.484-2.684c1.718-.11,3.984-.647,5.334.423A19.182,19.182,0,0,0,954.823,432.292Z" transform="translate(-503.132 -236.801)" fill="#464353"/><circle cx="0.677" cy="0.677" r="0.677" transform="translate(447.812 233.36)" opacity="0.1"/><circle cx="0.677" cy="0.677" r="0.677" transform="translate(447.812 233.091)" fill="#444053"/><circle cx="0.677" cy="0.677" r="0.677" transform="translate(452.139 275.81)" opacity="0.1"/><circle cx="0.677" cy="0.677" r="0.677" transform="translate(452.139 275.541)" fill="#444053"/><circle cx="0.677" cy="0.677" r="0.677" transform="translate(449.838 287.03)" opacity="0.1"/><circle cx="0.677" cy="0.677" r="0.677" transform="translate(449.838 286.761)" fill="#444053"/><path d="M932.331,534.84s-1.494,10.1,0,11.857S932.331,534.84,932.331,534.84Z" transform="translate(-505.042 -290.126)" opacity="0.1"/><path d="M1017.821,572.49s2.839,6.116,0,11.982-4.6,8.247-3.65,11.992S1017.821,572.49,1017.821,572.49Z" transform="translate(-546.329 -309.026)" opacity="0.1"/><path d="M750.739,789.889c4.188,2.839,10.543,1.494,10.543,1.494s9.6-4.6,12.45-4.6,9.731-2.839,9.731-2.839l-.229-1.917c-2.8.543-9.173,1.828-9.91,2.455-.946.812-12.57,4.736-12.57,4.736s-7.918-1-10.124-4.243C749.151,786.5,748.543,788.4,750.739,789.889Z" transform="translate(-413.495 -414.214)" opacity="0.1"/><g transform="translate(424.744 198.977)" opacity="0.1"><path d="M988.738,443.438v.06a.251.251,0,0,1,0-.06Z" transform="translate(-958.435 -443)"/><path d="M930.866,461.7c.777.359,1.753.5,2.221,1.175s.214,1.559.329,2.351c.2,1.419,2.117,2.49,3.322,1.638a3.484,3.484,0,0,0,.961-1.26c1.135-2.112,2.719-4.542,5.2-4.582a12.82,12.82,0,0,1,3.083.687,3.258,3.258,0,0,0,2.988-.4c.588-.533.866-1.454,1.653-1.638s1.494.533,1.877,1.24.647,1.539,1.379,1.907c.329.159.707.209,1.026.383,1.519.827.752,3.8,2.49,4.118q.329-3.322.667-6.653a3.923,3.923,0,0,1,.473-1.793c.229-.354.563-.637.817-1a2.959,2.959,0,0,0,.553-1.429,3.431,3.431,0,0,1-.553,2.49c-.254.344-.588.622-.817,1a3.923,3.923,0,0,0-.473,1.793q-.339,3.327-.667,6.653c-1.718-.319-.951-3.292-2.49-4.118-.319-.174-.7-.224-1.026-.383-.732-.364-1-1.2-1.379-1.907s-1.076-1.434-1.877-1.24-1.066,1.106-1.653,1.638a3.265,3.265,0,0,1-2.988.4,11.476,11.476,0,0,0-3.083-.687c-2.49.04-4.069,2.49-5.2,4.582a3.43,3.43,0,0,1-.961,1.26c-1.205.852-3.118-.219-3.322-1.638-.115-.792.13-1.678-.329-2.351s-1.444-.817-2.221-1.175c-1.808-.832-2.49-2.963-2.321-4.905A4.448,4.448,0,0,0,930.866,461.7Z" transform="translate(-928.207 -449.752)"/><path d="M928.02,443.849c.154.5.448.946.613,1.444a4.132,4.132,0,0,1,.154,1.778,3.434,3.434,0,0,0-.154-.7c-.164-.5-.458-.946-.613-1.444a2.988,2.988,0,0,1-.08-1.409A1.135,1.135,0,0,0,928.02,443.849Z" transform="translate(-927.891 -443.261)"/></g><path d="M991.051,551.251c3.108-.682,10.408-2.834,10.408-2.834l1.31-.264c0-4.537-.244-8.929-.329-10.423h-.035s-6.215,2.032-7.7,3.113-6.086.812-6.086.812a20.833,20.833,0,0,0-13.113,7.027C969.552,555.3,987.944,551.933,991.051,551.251Z" transform="translate(-526.457 -291.577)" opacity="0.1"/><path d="M1021.461,536.863a1.808,1.808,0,0,1,.4,3.033c-1.643,1.365-4.049,2.988-6.345,3.227-3.83.383-13.048,2.231-13.944,2.42l-.144.035c-.762.224-7.41,2.171-10.339,2.809-3.108.682-21.494,4.064-15.548-2.56a21.063,21.063,0,0,1,12.983-7.022,1.928,1.928,0,0,1,.239,0c.692.035,4.622.169,5.976-.817a12.613,12.613,0,0,1,2.236-1.111,42.9,42.9,0,0,1,9.143-2.639l6.355-1.106a1.857,1.857,0,0,1,1.076.134Z" transform="translate(-526.479 -289.255)" fill="#efb7b9"/><path d="M1032.482,504.9l2.988-.269s3.242,2.43,5.677,2.43,3.919,3.113,3.919,3.113a43.709,43.709,0,0,0,5.408,2.161c1.35.269,3.65,1.623,2.988,2.161s.139,1.758,1.355,2.7,3.108,5.817,1.494,6.474-6.081,2.027-7.3,2.7a3.349,3.349,0,0,1-2.7,0s-7.166-9.328-10.817-7.57a23.433,23.433,0,0,1-8.655,1.758l-3.919-8.247Z" transform="translate(-550.851 -274.961)" fill="#725e97"/><path d="M972.445,604.78v35.1H916.29v5.847h55.567V670.88h5.852v-66.1Z" transform="translate(-497.323 -325.235)" fill="#464353"/><path d="M994.051,519H971.825l-2.341,39.781H923.508a15.936,15.936,0,0,0-10.807,4.089,14.408,14.408,0,0,0-4.641,9.363v59.681h5.852l-.578-57.813a7.745,7.745,0,0,1,.174-1.813,9.432,9.432,0,0,1,4.074-6.066,7.609,7.609,0,0,1,3.9-1h52.086l2.923-41.534h17.55Z" transform="translate(-493.192 -282.174)" fill="#464353"/><path d="M993.674,631.8c-18.735,0-33.924,21.21-33.924,47.38s15.189,47.38,33.924,47.38,33.929-21.215,33.929-47.38S1012.414,631.8,993.674,631.8Zm1.758,88.247c-16.479,0-29.836-18.576-29.836-41.484s13.357-41.479,29.836-41.479,29.831,18.571,29.831,41.479S1011.906,720.047,995.432,720.047Z" transform="translate(-519.14 -338.799)" fill="#35323e"/><ellipse cx="5.264" cy="7.898" rx="5.264" ry="7.898" transform="translate(472.781 333.947)" fill="#35323e"/><ellipse cx="1.17" cy="2.341" rx="1.17" ry="2.341" transform="translate(478.045 339.798)" fill="#464353"/><path d="M817.837,706.373v6.434a5.851,5.851,0,0,0-5.632-.07,10.638,10.638,0,0,0-5.842,6.858c-1.419,4.89-4.168,14.542-6.658,23.63-3.486,12.868-9.96,9.96-9.96,9.96L744.994,756.4,726,746.711V740.87h47.968s11.11,4.094,15.777,5.842,2.923-1.758,9.1-23.825S817.837,706.373,817.837,706.373Z" transform="translate(-401.798 -375.922)" fill="#464353"/><path d="M714.76,750.427l-44.751,3.217L651,743.993l46.8-.583Z" transform="translate(-326.798 -373.194)" opacity="0.1"/><path d="M333.713,430.687a23.9,23.9,0,0,1-4.079-4.98c-2.371-3.71-6.379-5.7-9.1-6.728v-1.21l.169-.03-.075-1.125h.075l-.194-2.988h0l-.971-14.86s-3.511-9.88,2.729-19,.388-17.863-5.478-21.285c0,0-2.729-14.442-.388-17.858a100.763,100.763,0,0,0-9.8-4.98c-.055-.174-.1-.359-.144-.543-.065-1.35-.149-2.694-.224-4.039a14.676,14.676,0,0,1,.383-2.072c.075-.279.159-.568.249-.862a14.831,14.831,0,0,0,9.537-13.75,14.442,14.442,0,0,0-.926-5.1,6.408,6.408,0,0,0,.677-1.618,6.584,6.584,0,0,0-.926-4.741,17.384,17.384,0,0,0-8.277-7.7c-4.054-1.648-10.154-1.26-14.377-.752-2.371.284-5.075,1.076-5.931,3.247a22.624,22.624,0,0,0-.538,2.49c-.886,3.317-4.716,4.866-7.082,7.4-2.092,2.241-2.988,5.274-3.685,8.227a75.3,75.3,0,0,0-1.379,25.827c.239,1.992.558,3.959.9,5.936-1.424,1.992-2.709,5.508-2.122,11.623l-4.681,22.042L266.1,394.174a11.231,11.231,0,0,0,3.511,9.88,86.758,86.758,0,0,1,8.825,11.006,26.12,26.12,0,0,0-1.419,8.76c.05,1.355.124,2.664.219,3.909a34.475,34.475,0,0,0,1.494,7.789c.548,5.309,1.628,12.1,3.745,16.434l.777,23.182s-1.17,21.285-3.486,25.463,5.065,39.527,5.065,39.527v4.94l-1.245,3.655-.314-.234c-5.847,7.221,0,9.885,0,9.885l4.138.169a4.656,4.656,0,0,0,2.49,5.149s33.132,1.494,38.984,0,4.288-6.843,1.165-6.474a14.334,14.334,0,0,1-4.666-.612c1.818-2.117.364-4.98-1.957-4.711-3.122.378-10.134-2.381-10.134-2.381l-.035.045a4.558,4.558,0,0,0-.687-.2,79.585,79.585,0,0,1-7.739-2.156c-1.494-3.2-4.98-11.808-2.49-18.481a33,33,0,0,0,1.494-10.921,124,124,0,0,1,5.134-34.7l4.676-15.936s6.623-19.382,7.017-24.706l-.055-7.759c5.478,3.486,9.836,2.445,12.614.817a2.988,2.988,0,0,0,.493-4.826Zm-52.027-40.338c.134-.553.244-1.165.339-1.808.916,0,1.838,0,2.754-.03a14.029,14.029,0,0,1,1.384,7.47c-2.092-.652-5.239-2.251-4.457-5.608Z" transform="translate(-170.865 -169.235)" fill="url(#b)"/><path d="M303.494,791.273,302,795.755l4.875,4.875,16.13,3.75,11.628-1.125-.762-4.1h0a4.98,4.98,0,0,0-3.7-3.635c-4.781-1.125-13.894-3.685-15.812-7.246Z" transform="translate(-188.953 -417.346)" fill="#db8b8b"/><path d="M303.494,791.273,302,795.755l4.875,4.875,16.13,3.75,11.628-1.125-.762-4.1h0a4.98,4.98,0,0,0-3.7-3.635c-4.781-1.125-13.894-3.685-15.812-7.246Z" transform="translate(-188.953 -417.346)" opacity="0.1"/><path d="M328.363,808.58l-2.251-2.988,2.251-3.486s6.748,2.724,9.751,2.351,4.482,4.875-1.125,6.375-37.51,0-37.51,0-5.627-2.625,0-9.751l4.875,3.75s8.252,4.482,12.38,3.75Z" transform="translate(-186.432 -423.777)" fill="#2e3037"/><path d="M347.444,813.86l-11.618,1.1-16.13-3.755-4.875-4.875.4-1.19.558-1.673.548-1.638L327.2,798.84a6.724,6.724,0,0,0,2.206,2.206c3.531,2.42,9.88,4.163,13.606,5.035.154.04.314.085.463.139a4.911,4.911,0,0,1,1.9,1.165,4.981,4.981,0,0,1,1.335,2.331Z" transform="translate(-195.388 -422.652)" fill="#db8b8b"/><path d="M347.444,820.21l-11.618,1.1-16.13-3.755-4.875-4.875.4-1.19,4.482,3.441s8.257,4.482,12.38,3.75h11.613l-2.251-2.988,2.022-3.122a4.911,4.911,0,0,1,1.9,1.165,4.98,4.98,0,0,1,1.335,2.331Z" transform="translate(-195.388 -429.003)" opacity="0.1"/><path d="M341.163,819.13l-2.251-2.988,2.251-3.486s6.753,2.729,9.751,2.351,4.482,4.875-1.125,6.379-37.51,0-37.51,0-5.627-2.63,0-9.756l4.875,3.755s8.257,4.482,12.38,3.75Z" transform="translate(-192.857 -429.073)" fill="#2e3037"/><path d="M335.853,369.78s-18,1.877-15.378-5.627a13.446,13.446,0,0,0,.553-6.623,18.381,18.381,0,0,0-3.177-7.629l16.877,2.624a21.033,21.033,0,0,0-2.286,5.423C330.415,365.886,335.853,369.78,335.853,369.78Z" transform="translate(-196.909 -197.287)" fill="#db8b8b"/><path d="M292.21,561.55s.374,16.13,4.123,24.009l.752,22.908s-1.125,21.006-3.376,25.129,4.871,38.989,4.871,38.989v5.976s12,4.482,15.378-.752l-3.376-44.636,1.494-61.892Z" transform="translate(-184.038 -303.534)" fill="#35323e"/><path d="M292.2,561.55s.374,16.13,4.124,24.009l.752,22.908S295.95,629.473,293.7,633.6s4.875,38.989,4.875,38.989v5.976s12,4.482,15.378-.752l-3.376-44.636,1.494-61.892Z" transform="translate(-184.033 -303.534)" opacity="0.1"/><path d="M272.869,457.61l-2.251,6-1.872,12.754a11.275,11.275,0,0,0,3.376,9.751C276.6,490.6,282.625,500,282.625,500l7.107-21.379s-7.126-1.125-6-6,.747-13.879.747-13.879Z" transform="translate(-172.202 -251.357)" fill="#f7aab0"/><path d="M330.35,801.036c-4.816,7.575-12.3,3.282-13.63,2.43l.548-1.638,10.876-2.988A6.722,6.722,0,0,0,330.35,801.036Z" transform="translate(-196.342 -422.652)" opacity="0.1"/><path d="M331.93,548.958c-.379,5.249-6.753,24.4-6.753,24.4L320.7,589.1a125.176,125.176,0,0,0-4.945,34.243,33.407,33.407,0,0,1-1.434,10.782c-2.988,8.252,2.988,19.507,2.988,19.507-5.249,9.377-14.253,2.988-14.253,2.988v-6.011s-7.131-32.634-5.259-39.009,2.61-23.635,2.61-23.635v-31.13a35.308,35.308,0,0,1-10.294-22.41c-.09-1.23-.164-2.52-.209-3.86-.3-8.466,5.478-18.381,7.739-21.912.548-.852.886-1.335.886-1.335l33.122,13.137.075.03v4.119Z" transform="translate(-182.872 -276.311)" fill="#35323e"/><path d="M334.7,352.525a21.031,21.031,0,0,0-2.286,5.423A14.681,14.681,0,0,1,321,357.529a18.381,18.381,0,0,0-3.177-7.629Z" transform="translate(-196.894 -197.287)" opacity="0.1"/><path d="M14.631,0A14.631,14.631,0,1,1,0,14.631,14.631,14.631,0,0,1,14.631,0Z" transform="translate(115.672 131.607)" fill="#db8b8b"/><path d="M338.4,524.576h-.154c-15.727,3.232-35.473-13.157-35.473-13.157a18.923,18.923,0,0,0,1.365-2.794c.548-.852.886-1.335.886-1.335l33.122,13.137.085,1.315Z" transform="translate(-189.339 -276.296)" fill="#f7aab0" opacity="0.1"/><path d="M319.144,380.228s-21-12.754-27.749-7.5l-9.377,12.007s-6,1.872-4.875,13.874l-4.482,21.758,13.506,3.376s7.878,7.5,1.494,18.381c0,0,19.88,16.5,35.637,13.127l-1.125-17.629s-3.376-9.751,2.625-18.755.373-17.629-5.249-21.006C319.532,397.857,316.9,383.6,319.144,380.228Z" transform="translate(-174.224 -208.108)" fill="#f7aab0"/><path d="M364.4,542.72s7.878,1.494,11.628,7.5a23.336,23.336,0,0,0,3.929,4.905,2.988,2.988,0,0,1-.468,4.746c-2.988,1.788-7.829,2.888-13.944-2.151C355.024,549.1,364.4,542.72,364.4,542.72Z" transform="translate(-218.346 -294.082)" fill="#f7aab0"/><path d="M330.172,403.1s-7.5-.752-9.377,18.735-4.875,24.009-4.875,24.009-1.878,10.124,2.624,16.125,13.127,18.755,13.127,18.755,9.382,2.629,11.255-6.748L331.3,452.214s-1.872-7.5,2.624-12.754S341.8,399.346,330.172,403.1Z" transform="translate(-195.745 -223.85)" fill="#f7aab0" opacity="0.1"/><path d="M331.682,400.836s-7.5-.752-9.377,18.755-4.875,24.014-4.875,24.014-1.878,10.124,2.624,16.125,13.127,18.735,13.127,18.735,9.377,2.629,11.255-6.748l-11.628-21.743s-1.877-7.5,2.624-12.754S343.31,397.086,331.682,400.836Z" transform="translate(-196.503 -222.716)" fill="#f7aab0"/><path d="M353.667,429.36s.747,11.628-2.629,18.008-3.376,14.626,0,19.128" transform="translate(-212.298 -237.176)" opacity="0.1"/><path d="M338.434,394.325s-2.988-2.988-11.628-3.376-12.375-2.988-12.375-2.988" transform="translate(-195.193 -216.393)" opacity="0.1"/><path d="M297.106,298.7c-2.281.284-4.885,1.061-5.707,3.207a17.63,17.63,0,0,0-.5,2.49c-.852,3.277-4.537,4.8-6.813,7.306-1.992,2.211-2.893,5.2-3.546,8.117a76.259,76.259,0,0,0-1.32,25.488c.732,6.22,2.226,12.346,2.644,18.591s-.344,12.824-3.76,18.073c-1.494,2.261-3.406,4.243-4.447,6.728,2.151,1.743,5.12,1.992,7.888,2.087q4.841.164,9.681,0a10.326,10.326,0,0,0,4.92-1.026,7.624,7.624,0,0,0,2.585-2.769c1.843-3.132,2.311-6.9,2.231-10.533s-.652-7.246-.722-10.881a9.484,9.484,0,0,1,1.26-5.7,18.184,18.184,0,0,1,3.142-2.908c4.019-3.561,5.393-9.268,5.528-14.631s-.747-10.737-.294-16.081c.174-2.092.956-4.607,3.018-5.015a10.217,10.217,0,0,0,1.957-.249c1.653-.632,1.494-2.988,1.962-4.666.533-1.917,2.166-3.391,2.624-5.329,1.081-4.537-4.7-9.96-8.466-11.534C307.036,297.817,301.165,298.2,297.106,298.7Z" transform="translate(-174.726 -171.369)" opacity="0.1"/><path d="M296.321,297.192c-2.281.279-4.885,1.061-5.707,3.207a22.639,22.639,0,0,0-.5,2.49c-.852,3.272-4.542,4.8-6.818,7.306-1.992,2.211-2.893,5.2-3.546,8.117a76.364,76.364,0,0,0-1.36,25.463c.732,6.22,2.226,12.346,2.644,18.6s-.344,12.824-3.76,18.073c-1.494,2.256-3.406,4.238-4.447,6.723,2.151,1.748,5.12,1.992,7.888,2.092q4.841.154,9.681,0a10.21,10.21,0,0,0,4.92-1.026,7.535,7.535,0,0,0,2.58-2.769c1.848-3.132,2.311-6.9,2.236-10.533s-.657-7.246-.722-10.881a9.517,9.517,0,0,1,1.255-5.7,18.809,18.809,0,0,1,3.147-2.908c4.014-3.556,5.393-9.268,5.528-14.631s-.752-10.732-.3-16.081c.179-2.092.961-4.607,3.018-5.01a10.629,10.629,0,0,0,1.962-.249c1.653-.637,1.494-2.988,1.962-4.671.528-1.912,2.161-3.391,2.624-5.324,1.081-4.537-4.7-9.96-8.466-11.539C306.241,296.306,300.375,296.689,296.321,297.192Z" transform="translate(-174.31 -170.61)" fill="#35323e"/></g></svg>