<svg xmlns="http://www.w3.org/2000/svg" xmlns:xlink="http://www.w3.org/1999/xlink" width="295" height="295" viewBox="0 0 295 295"><defs><linearGradient id="a" x1="0.226" y1="0.112" x2="0.775" y2="1" gradientUnits="objectBoundingBox"><stop offset="0" stop-color="#f6cbc9" stop-opacity="0.859"/><stop offset="1" stop-color="#fff" stop-opacity="0.49"/></linearGradient></defs><g transform="translate(-391 -1500)"><path d="M147.5,0A147.5,147.5,0,1,1,0,147.5,147.5,147.5,0,0,1,147.5,0Z" transform="translate(391 1500)" opacity="0.33" fill="url(#a)"/><path d="M122,0A122,122,0,1,1,0,122,122,122,0,0,1,122,0Z" transform="translate(416 1525)" opacity="0.6" fill="url(#a)"/><path d="M58.952,4.5H8.382A8.381,8.381,0,0,0,0,12.882v50.57a8.381,8.381,0,0,0,8.382,8.382h50.57a8.381,8.381,0,0,0,8.382-8.382V12.882A8.381,8.381,0,0,0,58.952,4.5Zm33.211,6.611L72.944,24.367v27.6L92.162,65.205A5.622,5.622,0,0,0,101,60.681V15.635A5.625,5.625,0,0,0,92.162,11.111Z" transform="translate(488 1609.5)" fill="#4e4e4e"/></g></svg>